<svg width="1440" height="1024" viewBox="0 0 1440 1024" fill="none" xmlns="http://www.w3.org/2000/svg">
<g clip-path="url(#clip0_1_2)">
<rect width="1440" height="1024" fill="#FFEDCB"/>
<path fill-rule="evenodd" clip-rule="evenodd" d="M196.9 181.6C195.033 183.933 193.233 186.3 191.5 188.7C189.767 191.033 188.1 193.433 186.5 195.9C184.9 198.3 183.3 200.7 181.7 203.1C180.167 205.5 178.633 207.867 177.1 210.2C175.567 212.533 174.033 214.833 172.5 217.1C170.967 219.367 169.433 221.567 167.9 223.7C166.3 225.833 164.667 227.9 163 229.9C161.333 231.833 159.6 233.7 157.8 235.5C156.067 237.3 154.2 239 152.2 240.6C150.267 242.2 148.233 243.633 146.1 244.9C144.033 246.233 141.833 247.433 139.5 248.5C137.233 249.567 134.9 250.5 132.5 251.3C130.1 252.1 127.667 252.767 125.2 253.3C122.667 253.833 120.133 254.267 117.6 254.6C115.067 254.867 112.5 255 109.9 255C107.3 255 104.733 254.867 102.2 254.6C99.6667 254.4 97.1333 254.033 94.6 253.5C92.1333 252.967 89.6667 252.3 87.2 251.5C84.8 250.7 82.4333 249.767 80.1 248.7C77.8333 247.633 75.6333 246.433 73.5 245.1C71.3 243.767 69.2 242.3 67.2 240.7C65.1333 239.167 63.1333 237.5 61.2 235.7C59.2667 233.9 57.3667 232.033 55.5 230.1C53.6333 228.1 51.8 226.033 50 223.9C48.2 221.767 46.4 219.6 44.6 217.4C42.8 215.133 40.9667 212.833 39.1 210.5C37.3 208.233 35.4667 205.9 33.6 203.5C31.7333 201.1 29.8333 198.7 27.9 196.3C25.9667 193.9 24 191.5 22 189.1C19.9333 186.7 17.8333 184.333 15.7 182C13.5667 179.6 11.3667 177.233 9.1 174.9C6.9 172.5 4.66667 170.133 2.4 167.8C0.133335 165.467 -2.13333 163.1 -4.4 160.7C-6.6 158.3 -8.8 155.9 -11 153.5C-13.2 151.033 -15.3667 148.567 -17.5 146.1C-19.6333 143.633 -21.6667 141.1 -23.6 138.5C-25.5333 135.967 -27.4 133.333 -29.2 130.6C-31 127.933 -32.6667 125.2 -34.2 122.4C-35.7333 119.6 -37.1333 116.733 -38.4 113.8C-39.6667 110.867 -40.7667 107.833 -41.7 104.7C-42.6333 101.633 -43.4333 98.5 -44.1 95.3C-44.7 92.0333 -45.1667 88.7333 -45.5 85.4C-45.8333 82.0667 -46 78.7333 -46 75.4C-46 72 -45.8667 68.5667 -45.6 65.1C-45.2667 61.7 -44.8 58.3 -44.2 54.9C-43.6 51.5 -42.8667 48.1 -42 44.7C-41.1333 41.3667 -40.1 38.0333 -38.9 34.7C-37.7 31.4333 -36.3667 28.2 -34.9 25C-33.4333 21.8 -31.8 18.6667 -30 15.6C-28.2667 12.5333 -26.4 9.56667 -24.4 6.7C-22.3333 3.76667 -20.1667 0.966666 -17.9 -1.7C-15.5667 -4.36667 -13.1667 -6.96667 -10.7 -9.5C-8.16667 -11.9667 -5.53333 -14.3333 -2.8 -16.6C-0.0666659 -18.8667 2.73333 -21.0333 5.6 -23.1C8.46667 -25.1 11.4333 -27 14.5 -28.8C17.5 -30.6 20.6 -32.2333 23.8 -33.7C26.9333 -35.2333 30.1333 -36.6 33.4 -37.8C36.6 -39.0667 39.8667 -40.1333 43.2 -41C46.5333 -41.9333 49.8667 -42.7 53.2 -43.3C56.5333 -43.9 59.9 -44.3333 63.3 -44.6C66.6333 -44.8667 69.9667 -45 73.3 -45C76.7 -44.9333 80.0667 -44.7667 83.4 -44.5C86.7333 -44.1667 90.0667 -43.7 93.4 -43.1C96.7333 -42.5667 100.033 -41.9 103.3 -41.1C106.567 -40.3 109.8 -39.3667 113 -38.3C116.2 -37.3 119.367 -36.2 122.5 -35C125.633 -33.8667 128.733 -32.6 131.8 -31.2C134.867 -29.8667 137.9 -28.4667 140.9 -27C143.833 -25.5333 146.733 -24.0333 149.6 -22.5C152.467 -20.9 155.267 -19.2667 158 -17.6C160.733 -15.9333 163.4 -14.2333 166 -12.5C168.667 -10.7667 171.233 -9 173.7 -7.2C176.233 -5.4 178.7 -3.56667 181.1 -1.7C183.5 0.166666 185.867 2.06667 188.2 4C190.467 6 192.733 8 195 10C197.2 12.0667 199.367 14.1333 201.5 16.2C203.633 18.3333 205.767 20.4667 207.9 22.6C209.967 24.8 212 27.0333 214 29.3C216 31.5667 217.967 33.8333 219.9 36.1C221.833 38.4333 223.767 40.8 225.7 43.2C227.567 45.6 229.4 48.0333 231.2 50.5C233 52.9 234.733 55.3667 236.4 57.9C238.067 60.3667 239.667 62.8667 241.2 65.4C242.667 67.9333 244.033 70.4333 245.3 72.9C246.633 75.4333 247.8 77.9667 248.8 80.5C249.867 83.0333 250.767 85.5333 251.5 88C252.3 90.5333 252.9 93 253.3 95.4C253.7 97.8667 253.933 100.3 254 102.7C254.067 105.1 253.9 107.467 253.5 109.8C253.167 112.133 252.6 114.433 251.8 116.7C251 118.967 250.033 121.2 248.9 123.4C247.7 125.6 246.367 127.767 244.9 129.9C243.367 132.033 241.733 134.133 240 136.2C238.2 138.333 236.333 140.433 234.4 142.5C232.4 144.633 230.367 146.733 228.3 148.8C226.233 150.867 224.1 152.967 221.9 155.1C219.7 157.167 217.533 159.3 215.4 161.5C213.2 163.633 211.033 165.8 208.9 168C206.767 170.2 204.7 172.4 202.7 174.6C200.7 176.867 198.767 179.2 196.9 181.6Z" fill="#FEB941"/>
<path fill-rule="evenodd" clip-rule="evenodd" d="M1423.47 321.504C1420.97 323.162 1418.26 324.654 1415.33 325.98C1412.39 327.306 1409.33 328.507 1406.14 329.585C1402.87 330.579 1399.51 331.532 1396.06 332.444C1392.52 333.273 1388.9 334.06 1385.2 334.806C1381.57 335.552 1377.82 336.298 1373.95 337.044C1370.07 337.707 1366.14 338.411 1362.18 339.157C1358.13 339.903 1354.07 340.69 1350.02 341.519C1346.06 342.348 1342 343.259 1337.87 344.254C1333.81 345.331 1329.76 346.491 1325.71 347.735C1321.75 348.978 1317.78 350.387 1313.81 351.961C1309.85 353.536 1305.93 355.193 1302.05 356.934C1298.17 358.757 1294.33 360.622 1290.54 362.528C1286.74 364.434 1282.99 366.381 1279.29 368.37C1275.58 370.359 1271.87 372.307 1268.17 374.213C1264.54 376.119 1260.97 377.943 1257.43 379.683C1253.9 381.423 1250.36 383.039 1246.83 384.531C1243.38 386.106 1239.98 387.473 1236.61 388.634C1233.16 389.794 1229.8 390.747 1226.53 391.493C1223.16 392.239 1219.85 392.694 1216.57 392.86C1213.38 393.109 1210.19 393.026 1207 392.612C1203.81 392.197 1200.71 391.534 1197.69 390.623C1194.59 389.628 1191.57 388.426 1188.64 387.017C1185.71 385.526 1182.86 383.827 1180.1 381.921C1177.26 380.014 1174.54 377.943 1171.96 375.705C1169.28 373.384 1166.74 370.898 1164.33 368.246C1161.83 365.677 1159.46 362.942 1157.21 360.042C1154.97 357.141 1152.86 354.157 1150.88 351.091C1148.81 348.025 1146.91 344.875 1145.19 341.643C1143.46 338.411 1141.83 335.096 1140.27 331.698C1138.81 328.383 1137.47 325.068 1136.26 321.753C1135.06 318.355 1133.98 314.957 1133.03 311.559C1132 308.079 1131.09 304.598 1130.32 301.117C1129.54 297.636 1128.81 294.114 1128.12 290.55C1127.43 286.987 1126.74 283.382 1126.05 279.735C1125.45 276.006 1124.8 272.276 1124.11 268.547C1123.51 264.735 1122.82 260.881 1122.04 256.986C1121.35 253.091 1120.57 249.113 1119.71 245.052C1118.85 240.991 1117.86 236.847 1116.74 232.621C1115.7 228.311 1114.54 223.96 1113.25 219.568C1111.87 215.175 1110.4 210.659 1108.85 206.018C1107.21 201.459 1105.49 196.818 1103.68 192.095C1101.95 187.454 1100.14 182.771 1098.25 178.047C1096.44 173.406 1094.67 168.807 1092.94 164.248C1091.13 159.69 1089.5 155.256 1088.03 150.947C1086.48 146.554 1085.1 142.369 1083.89 138.391C1082.77 134.413 1081.87 130.642 1081.18 127.079C1080.49 123.515 1080.1 120.2 1080.01 117.134C1079.93 114.15 1080.27 111.457 1081.05 109.053C1081.74 106.733 1082.86 104.744 1084.41 103.086C1086.05 101.512 1088.16 100.31 1090.75 99.4813C1093.33 98.6525 1096.35 98.1967 1099.8 98.1138C1103.25 98.031 1107.08 98.1967 1111.31 98.6111C1115.53 98.9426 1120.06 99.4813 1124.89 100.227C1129.8 100.973 1134.89 101.802 1140.14 102.713C1145.49 103.625 1151.01 104.495 1156.7 105.324C1162.3 106.236 1168.03 107.023 1173.9 107.686C1179.76 108.349 1185.66 108.846 1191.61 109.178C1197.47 109.509 1203.34 109.551 1209.2 109.302C1215.06 109.053 1220.79 108.432 1226.4 107.437C1232 106.526 1237.43 105.158 1242.69 103.335C1248.04 101.512 1253.21 99.357 1258.21 96.8707C1263.12 94.3844 1267.95 91.6081 1272.69 88.5417C1277.35 85.4753 1281.92 82.2432 1286.4 78.8453C1290.88 75.4474 1295.24 71.9666 1299.46 68.403C1303.77 64.9222 1307.95 61.4 1312 57.8364C1316.14 54.2727 1320.19 50.8334 1324.16 47.5184C1328.12 44.2034 1332.09 41.0956 1336.06 38.1949C1339.94 35.2114 1343.77 32.5594 1347.56 30.2389C1351.44 27.9184 1355.32 25.9294 1359.2 24.2718C1363 22.6972 1366.83 21.5784 1370.71 20.9154C1374.59 20.1695 1378.47 19.8795 1382.35 20.0452C1386.14 20.211 1389.94 20.7911 1393.73 21.7856C1397.52 22.6972 1401.23 23.9818 1404.85 25.6393C1408.56 27.2968 1412.14 29.2444 1415.58 31.482C1419.03 33.7196 1422.4 36.2473 1425.67 39.0651C1428.95 41.8 1432.05 44.7835 1434.98 48.0157C1437.91 51.2478 1440.71 54.6871 1443.39 58.3336C1445.97 61.8973 1448.39 65.6267 1450.63 69.5218C1452.87 73.3341 1454.9 77.2707 1456.71 81.3316C1458.52 85.3925 1460.07 89.5362 1461.36 93.7629C1462.74 97.9895 1463.86 102.216 1464.72 106.443C1465.59 110.752 1466.28 115.103 1466.79 119.496C1467.31 123.805 1467.66 128.198 1467.83 132.673C1468 137.065 1468.04 141.458 1467.96 145.85C1467.78 150.325 1467.57 154.801 1467.31 159.276C1466.97 163.751 1466.58 168.226 1466.15 172.702C1465.63 177.177 1465.07 181.611 1464.47 186.003C1463.95 190.478 1463.34 194.912 1462.65 199.305C1462.05 203.697 1461.45 208.048 1460.84 212.358C1460.15 216.667 1459.55 220.977 1459.03 225.286C1458.43 229.513 1457.83 233.698 1457.22 237.842C1456.71 241.986 1456.15 246.046 1455.54 250.024C1454.94 254.002 1454.29 257.898 1453.6 261.71C1452.91 265.522 1452.18 269.21 1451.4 272.774C1450.54 276.337 1449.64 279.818 1448.69 283.216C1447.74 286.531 1446.66 289.722 1445.46 292.788C1444.25 295.855 1442.87 298.755 1441.32 301.49C1439.85 304.308 1438.26 306.918 1436.53 309.322C1434.72 311.725 1432.74 313.963 1430.58 316.035C1428.43 318.024 1426.06 319.847 1423.47 321.504Z" fill="#FEB941"/>
<path fill-rule="evenodd" clip-rule="evenodd" d="M423.289 1146.27C420.201 1147.06 416.931 1147.61 413.482 1147.91C410.082 1148.33 406.486 1148.53 402.695 1148.52C398.904 1148.51 394.968 1148.4 390.885 1148.18C386.803 1147.96 382.59 1147.61 378.247 1147.11C373.874 1146.69 369.355 1146.16 364.69 1145.53C360.106 1144.93 355.401 1144.28 350.575 1143.58C345.75 1142.88 340.829 1142.18 335.813 1141.48C330.716 1140.75 325.604 1140.05 320.476 1139.39C315.269 1138.7 310.031 1138.08 304.763 1137.53C299.414 1136.94 294.035 1136.43 288.626 1135.98C283.217 1135.54 277.818 1135.19 272.428 1134.92C266.989 1134.55 261.574 1134.23 256.185 1133.96C250.826 1133.63 245.507 1133.31 240.228 1133C234.949 1132.7 229.796 1132.32 224.769 1131.87C219.632 1131.46 214.675 1130.96 209.9 1130.36C205.124 1129.77 200.49 1129.07 195.997 1128.25C191.503 1127.44 187.221 1126.47 183.151 1125.33C179.161 1124.22 175.342 1122.94 171.695 1121.47C168.128 1120.04 164.858 1118.36 161.885 1116.43C158.802 1114.53 156.056 1112.39 153.647 1110.02C151.238 1107.65 149.056 1105.08 147.101 1102.31C145.256 1099.51 143.623 1096.54 142.201 1093.41C140.699 1090.24 139.449 1086.93 138.45 1083.47C137.371 1079.98 136.473 1076.4 135.756 1072.72C135.039 1069.05 134.408 1065.28 133.863 1061.43C133.318 1057.58 132.843 1053.67 132.438 1049.7C132.034 1045.74 131.685 1041.76 131.391 1037.76C131.097 1033.76 130.748 1029.77 130.344 1025.81C130.05 1021.81 129.645 1017.85 129.13 1013.92C128.696 1010.03 128.175 1006.23 127.569 1002.52C126.993 998.732 126.332 995.039 125.585 991.436C124.838 987.832 124.045 984.336 123.207 980.947C122.48 977.521 121.682 974.149 120.814 970.831C120.026 967.548 119.303 964.334 118.646 961.19C117.878 958.083 117.215 955.064 116.658 952.131C116.05 949.092 115.533 946.177 115.106 943.383C114.68 940.59 114.413 937.865 114.308 935.208C114.092 932.589 114.092 930.019 114.308 927.499C114.414 925.016 114.72 922.618 115.228 920.306C115.815 918.028 116.579 915.782 117.519 913.569C118.428 911.427 119.553 909.335 120.895 907.293C122.317 905.284 123.859 903.327 125.522 901.421C127.215 899.444 129.085 897.499 131.13 895.587C133.145 893.746 135.31 891.885 137.627 890.004C139.943 888.122 142.356 886.239 144.863 884.355C147.371 882.471 149.989 880.549 152.718 878.59C155.528 876.665 158.352 874.705 161.192 872.709C164.062 870.641 167.002 868.519 170.013 866.343C173.025 864.167 176.066 861.919 179.138 859.6C182.29 857.315 185.407 854.889 188.489 852.322C191.651 849.788 194.829 847.22 198.022 844.615C201.215 842.01 204.423 839.37 207.646 836.694C210.95 834.052 214.238 831.446 217.511 828.876C220.865 826.339 224.244 823.856 227.647 821.425C231.051 818.994 234.53 816.722 238.084 814.607C241.557 812.459 245.146 810.486 248.85 808.688C252.474 806.856 256.183 805.271 259.977 803.933C263.69 802.56 267.528 801.452 271.492 800.607C275.425 799.833 279.429 799.342 283.502 799.133C287.575 798.925 291.687 799.07 295.839 799.569C300.102 800.03 304.42 800.81 308.792 801.908C313.134 803.077 317.545 804.529 322.027 806.263C326.428 807.963 330.914 809.91 335.485 812.103C339.946 814.334 344.411 816.777 348.88 819.433C353.38 822.018 357.844 824.798 362.273 827.774C366.672 830.821 371.025 833.975 375.332 837.236C379.64 840.497 383.902 843.865 388.118 847.341C392.335 850.816 396.426 854.364 400.39 857.985C404.386 861.535 408.295 865.175 412.119 868.905C415.863 872.601 419.47 876.281 422.942 879.946C426.495 883.645 429.871 887.311 433.072 890.945C436.353 894.613 439.458 898.249 442.387 901.851C445.286 905.526 448.105 909.166 450.843 912.772C453.47 916.415 455.977 920.007 458.363 923.548C460.719 927.16 462.915 930.704 464.949 934.18C467.064 937.69 468.988 941.203 470.72 944.719C472.564 948.198 474.191 951.627 475.602 955.007C477.094 958.42 478.45 961.819 479.67 965.201C480.809 968.55 481.813 971.883 482.682 975.201C483.47 978.485 484.137 981.717 484.684 984.898C485.23 988.079 485.641 991.245 485.917 994.395C486.192 997.545 486.332 1000.68 486.336 1003.8C486.37 1006.85 486.268 1009.88 486.031 1012.9C485.844 1016.02 485.551 1019.05 485.153 1022C484.725 1025.02 484.241 1028.06 483.702 1031.12C483.193 1034.1 482.589 1037.09 481.889 1040.08C481.19 1043.07 480.49 1046.06 479.79 1049.05C478.98 1052.07 478.169 1055.1 477.359 1058.13C476.468 1061.12 475.617 1064.13 474.807 1067.15C473.966 1070.25 473.085 1073.33 472.164 1076.4C471.353 1079.42 470.472 1082.5 469.521 1085.64C468.6 1088.7 467.694 1091.73 466.803 1094.72C465.801 1097.75 464.734 1100.71 463.602 1103.6C462.551 1106.52 461.394 1109.36 460.131 1112.11C458.869 1114.86 457.501 1117.52 456.028 1120.1C454.585 1122.6 452.996 1125.01 451.262 1127.3C449.528 1129.6 447.679 1131.72 445.714 1133.67C443.719 1135.69 441.583 1137.48 439.308 1139.04C437.002 1140.67 434.5 1142.09 431.802 1143.31C429.105 1144.52 426.267 1145.51 423.289 1146.27Z" fill="#FEB941"/>
<path d="M124 159L128.33 166.5H119.67L124 159Z" fill="#FEB941"/>
<path d="M144 159L148.33 166.5H139.67L144 159Z" fill="#FEB941"/>
<path d="M164 159L168.33 166.5H159.67L164 159Z" fill="#FEB941"/>
<path d="M184 159L188.33 166.5H179.67L184 159Z" fill="#FEB941"/>
<path d="M204 159L208.33 166.5H199.67L204 159Z" fill="#FEB941"/>
<path d="M224 159L228.33 166.5H219.67L224 159Z" fill="#FEB941"/>
<path d="M244 159L248.33 166.5H239.67L244 159Z" fill="#FEB941"/>
<path d="M264 159L268.33 166.5H259.67L264 159Z" fill="#FEB941"/>
<path d="M284 159L288.33 166.5H279.67L284 159Z" fill="#FEB941"/>
<path d="M304 159L308.33 166.5H299.67L304 159Z" fill="#FEB941"/>
<path d="M324 159L328.33 166.5H319.67L324 159Z" fill="#FEB941"/>
<path d="M344 159L348.33 166.5H339.67L344 159Z" fill="#FEB941"/>
<path d="M364 159L368.33 166.5H359.67L364 159Z" fill="#FEB941"/>
<path d="M384 159L388.33 166.5H379.67L384 159Z" fill="#FEB941"/>
<path d="M404 159L408.33 166.5H399.67L404 159Z" fill="#FEB941"/>
<path d="M424 159L428.33 166.5H419.67L424 159Z" fill="#FEB941"/>
<path d="M444 159L448.33 166.5H439.67L444 159Z" fill="#FEB941"/>
<path d="M464 159L468.33 166.5H459.67L464 159Z" fill="#FEB941"/>
<path d="M484 159L488.33 166.5H479.67L484 159Z" fill="#FEB941"/>
<path d="M504 159L508.33 166.5H499.67L504 159Z" fill="#FEB941"/>
<path d="M524 159L528.33 166.5H519.67L524 159Z" fill="#FEB941"/>
<path d="M544 159L548.33 166.5H539.67L544 159Z" fill="#FEB941"/>
<path d="M564 159L568.33 166.5H559.67L564 159Z" fill="#FEB941"/>
<path d="M584 159L588.33 166.5H579.67L584 159Z" fill="#FEB941"/>
<path d="M604 159L608.33 166.5H599.67L604 159Z" fill="#FEB941"/>
<path d="M624 159L628.33 166.5H619.67L624 159Z" fill="#FEB941"/>
<path d="M644 159L648.33 166.5H639.67L644 159Z" fill="#FEB941"/>
<path d="M664 159L668.33 166.5H659.67L664 159Z" fill="#FEB941"/>
<path d="M684 159L688.33 166.5H679.67L684 159Z" fill="#FEB941"/>
<path d="M704 159L708.33 166.5H699.67L704 159Z" fill="#FEB941"/>
<path d="M124 179L128.33 186.5H119.67L124 179Z" fill="#FEB941"/>
<path d="M144 179L148.33 186.5H139.67L144 179Z" fill="#FEB941"/>
<path d="M164 179L168.33 186.5H159.67L164 179Z" fill="#FEB941"/>
<path d="M184 179L188.33 186.5H179.67L184 179Z" fill="#FEB941"/>
<path d="M204 179L208.33 186.5H199.67L204 179Z" fill="#FEB941"/>
<path d="M224 179L228.33 186.5H219.67L224 179Z" fill="#FEB941"/>
<path d="M244 179L248.33 186.5H239.67L244 179Z" fill="#FEB941"/>
<path d="M264 179L268.33 186.5H259.67L264 179Z" fill="#FEB941"/>
<path d="M284 179L288.33 186.5H279.67L284 179Z" fill="#FEB941"/>
<path d="M304 179L308.33 186.5H299.67L304 179Z" fill="#FEB941"/>
<path d="M324 179L328.33 186.5H319.67L324 179Z" fill="#FEB941"/>
<path d="M344 179L348.33 186.5H339.67L344 179Z" fill="#FEB941"/>
<path d="M364 179L368.33 186.5H359.67L364 179Z" fill="#FEB941"/>
<path d="M384 179L388.33 186.5H379.67L384 179Z" fill="#FEB941"/>
<path d="M404 179L408.33 186.5H399.67L404 179Z" fill="#FEB941"/>
<path d="M424 179L428.33 186.5H419.67L424 179Z" fill="#FEB941"/>
<path d="M444 179L448.33 186.5H439.67L444 179Z" fill="#FEB941"/>
<path d="M464 179L468.33 186.5H459.67L464 179Z" fill="#FEB941"/>
<path d="M484 179L488.33 186.5H479.67L484 179Z" fill="#FEB941"/>
<path d="M504 179L508.33 186.5H499.67L504 179Z" fill="#FEB941"/>
<path d="M524 179L528.33 186.5H519.67L524 179Z" fill="#FEB941"/>
<path d="M544 179L548.33 186.5H539.67L544 179Z" fill="#FEB941"/>
<path d="M564 179L568.33 186.5H559.67L564 179Z" fill="#FEB941"/>
<path d="M584 179L588.33 186.5H579.67L584 179Z" fill="#FEB941"/>
<path d="M604 179L608.33 186.5H599.67L604 179Z" fill="#FEB941"/>
<path d="M624 179L628.33 186.5H619.67L624 179Z" fill="#FEB941"/>
<path d="M644 179L648.33 186.5H639.67L644 179Z" fill="#FEB941"/>
<path d="M664 179L668.33 186.5H659.67L664 179Z" fill="#FEB941"/>
<path d="M684 179L688.33 186.5H679.67L684 179Z" fill="#FEB941"/>
<path d="M704 179L708.33 186.5H699.67L704 179Z" fill="#FEB941"/>
<path d="M124 199L128.33 206.5H119.67L124 199Z" fill="#FEB941"/>
<path d="M144 199L148.33 206.5H139.67L144 199Z" fill="#FEB941"/>
<path d="M164 199L168.33 206.5H159.67L164 199Z" fill="#FEB941"/>
<path d="M184 199L188.33 206.5H179.67L184 199Z" fill="#FEB941"/>
<path d="M204 199L208.33 206.5H199.67L204 199Z" fill="#FEB941"/>
<path d="M224 199L228.33 206.5H219.67L224 199Z" fill="#FEB941"/>
<path d="M244 199L248.33 206.5H239.67L244 199Z" fill="#FEB941"/>
<path d="M264 199L268.33 206.5H259.67L264 199Z" fill="#FEB941"/>
<path d="M284 199L288.33 206.5H279.67L284 199Z" fill="#FEB941"/>
<path d="M304 199L308.33 206.5H299.67L304 199Z" fill="#FEB941"/>
<path d="M324 199L328.33 206.5H319.67L324 199Z" fill="#FEB941"/>
<path d="M344 199L348.33 206.5H339.67L344 199Z" fill="#FEB941"/>
<path d="M364 199L368.33 206.5H359.67L364 199Z" fill="#FEB941"/>
<path d="M384 199L388.33 206.5H379.67L384 199Z" fill="#FEB941"/>
<path d="M404 199L408.33 206.5H399.67L404 199Z" fill="#FEB941"/>
<path d="M424 199L428.33 206.5H419.67L424 199Z" fill="#FEB941"/>
<path d="M444 199L448.33 206.5H439.67L444 199Z" fill="#FEB941"/>
<path d="M464 199L468.33 206.5H459.67L464 199Z" fill="#FEB941"/>
<path d="M484 199L488.33 206.5H479.67L484 199Z" fill="#FEB941"/>
<path d="M504 199L508.33 206.5H499.67L504 199Z" fill="#FEB941"/>
<path d="M524 199L528.33 206.5H519.67L524 199Z" fill="#FEB941"/>
<path d="M544 199L548.33 206.5H539.67L544 199Z" fill="#FEB941"/>
<path d="M564 199L568.33 206.5H559.67L564 199Z" fill="#FEB941"/>
<path d="M584 199L588.33 206.5H579.67L584 199Z" fill="#FEB941"/>
<path d="M604 199L608.33 206.5H599.67L604 199Z" fill="#FEB941"/>
<path d="M624 199L628.33 206.5H619.67L624 199Z" fill="#FEB941"/>
<path d="M644 199L648.33 206.5H639.67L644 199Z" fill="#FEB941"/>
<path d="M664 199L668.33 206.5H659.67L664 199Z" fill="#FEB941"/>
<path d="M684 199L688.33 206.5H679.67L684 199Z" fill="#FEB941"/>
<path d="M704 199L708.33 206.5H699.67L704 199Z" fill="#FEB941"/>
<path d="M124 219L128.33 226.5H119.67L124 219Z" fill="#FEB941"/>
<path d="M144 219L148.33 226.5H139.67L144 219Z" fill="#FEB941"/>
<path d="M164 219L168.33 226.5H159.67L164 219Z" fill="#FEB941"/>
<path d="M184 219L188.33 226.5H179.67L184 219Z" fill="#FEB941"/>
<path d="M204 219L208.33 226.5H199.67L204 219Z" fill="#FEB941"/>
<path d="M224 219L228.33 226.5H219.67L224 219Z" fill="#FEB941"/>
<path d="M244 219L248.33 226.5H239.67L244 219Z" fill="#FEB941"/>
<path d="M264 219L268.33 226.5H259.67L264 219Z" fill="#FEB941"/>
<path d="M284 219L288.33 226.5H279.67L284 219Z" fill="#FEB941"/>
<path d="M304 219L308.33 226.5H299.67L304 219Z" fill="#FEB941"/>
<path d="M324 219L328.33 226.5H319.67L324 219Z" fill="#FEB941"/>
<path d="M344 219L348.33 226.5H339.67L344 219Z" fill="#FEB941"/>
<path d="M364 219L368.33 226.5H359.67L364 219Z" fill="#FEB941"/>
<path d="M384 219L388.33 226.5H379.67L384 219Z" fill="#FEB941"/>
<path d="M404 219L408.33 226.5H399.67L404 219Z" fill="#FEB941"/>
<path d="M424 219L428.33 226.5H419.67L424 219Z" fill="#FEB941"/>
<path d="M444 219L448.33 226.5H439.67L444 219Z" fill="#FEB941"/>
<path d="M464 219L468.33 226.5H459.67L464 219Z" fill="#FEB941"/>
<path d="M484 219L488.33 226.5H479.67L484 219Z" fill="#FEB941"/>
<path d="M504 219L508.33 226.5H499.67L504 219Z" fill="#FEB941"/>
<path d="M524 219L528.33 226.5H519.67L524 219Z" fill="#FEB941"/>
<path d="M544 219L548.33 226.5H539.67L544 219Z" fill="#FEB941"/>
<path d="M564 219L568.33 226.5H559.67L564 219Z" fill="#FEB941"/>
<path d="M584 219L588.33 226.5H579.67L584 219Z" fill="#FEB941"/>
<path d="M604 219L608.33 226.5H599.67L604 219Z" fill="#FEB941"/>
<path d="M624 219L628.33 226.5H619.67L624 219Z" fill="#FEB941"/>
<path d="M644 219L648.33 226.5H639.67L644 219Z" fill="#FEB941"/>
<path d="M664 219L668.33 226.5H659.67L664 219Z" fill="#FEB941"/>
<path d="M684 219L688.33 226.5H679.67L684 219Z" fill="#FEB941"/>
<path d="M704 219L708.33 226.5H699.67L704 219Z" fill="#FEB941"/>
<path d="M124 239L128.33 246.5H119.67L124 239Z" fill="#FEB941"/>
<path d="M144 239L148.33 246.5H139.67L144 239Z" fill="#FEB941"/>
<path d="M164 239L168.33 246.5H159.67L164 239Z" fill="#FEB941"/>
<path d="M184 239L188.33 246.5H179.67L184 239Z" fill="#FEB941"/>
<path d="M204 239L208.33 246.5H199.67L204 239Z" fill="#FEB941"/>
<path d="M224 239L228.33 246.5H219.67L224 239Z" fill="#FEB941"/>
<path d="M244 239L248.33 246.5H239.67L244 239Z" fill="#FEB941"/>
<path d="M264 239L268.33 246.5H259.67L264 239Z" fill="#FEB941"/>
<path d="M284 239L288.33 246.5H279.67L284 239Z" fill="#FEB941"/>
<path d="M304 239L308.33 246.5H299.67L304 239Z" fill="#FEB941"/>
<path d="M324 239L328.33 246.5H319.67L324 239Z" fill="#FEB941"/>
<path d="M344 239L348.33 246.5H339.67L344 239Z" fill="#FEB941"/>
<path d="M364 239L368.33 246.5H359.67L364 239Z" fill="#FEB941"/>
<path d="M384 239L388.33 246.5H379.67L384 239Z" fill="#FEB941"/>
<path d="M404 239L408.33 246.5H399.67L404 239Z" fill="#FEB941"/>
<path d="M424 239L428.33 246.5H419.67L424 239Z" fill="#FEB941"/>
<path d="M444 239L448.33 246.5H439.67L444 239Z" fill="#FEB941"/>
<path d="M464 239L468.33 246.5H459.67L464 239Z" fill="#FEB941"/>
<path d="M484 239L488.33 246.5H479.67L484 239Z" fill="#FEB941"/>
<path d="M504 239L508.33 246.5H499.67L504 239Z" fill="#FEB941"/>
<path d="M524 239L528.33 246.5H519.67L524 239Z" fill="#FEB941"/>
<path d="M544 239L548.33 246.5H539.67L544 239Z" fill="#FEB941"/>
<path d="M564 239L568.33 246.5H559.67L564 239Z" fill="#FEB941"/>
<path d="M584 239L588.33 246.5H579.67L584 239Z" fill="#FEB941"/>
<path d="M604 239L608.33 246.5H599.67L604 239Z" fill="#FEB941"/>
<path d="M624 239L628.33 246.5H619.67L624 239Z" fill="#FEB941"/>
<path d="M644 239L648.33 246.5H639.67L644 239Z" fill="#FEB941"/>
<path d="M664 239L668.33 246.5H659.67L664 239Z" fill="#FEB941"/>
<path d="M684 239L688.33 246.5H679.67L684 239Z" fill="#FEB941"/>
<path d="M704 239L708.33 246.5H699.67L704 239Z" fill="#FEB941"/>
<path d="M124 259L128.33 266.5H119.67L124 259Z" fill="#FEB941"/>
<path d="M144 259L148.33 266.5H139.67L144 259Z" fill="#FEB941"/>
<path d="M164 259L168.33 266.5H159.67L164 259Z" fill="#FEB941"/>
<path d="M184 259L188.33 266.5H179.67L184 259Z" fill="#FEB941"/>
<path d="M204 259L208.33 266.5H199.67L204 259Z" fill="#FEB941"/>
<path d="M224 259L228.33 266.5H219.67L224 259Z" fill="#FEB941"/>
<path d="M244 259L248.33 266.5H239.67L244 259Z" fill="#FEB941"/>
<path d="M264 259L268.33 266.5H259.67L264 259Z" fill="#FEB941"/>
<path d="M284 259L288.33 266.5H279.67L284 259Z" fill="#FEB941"/>
<path d="M304 259L308.33 266.5H299.67L304 259Z" fill="#FEB941"/>
<path d="M324 259L328.33 266.5H319.67L324 259Z" fill="#FEB941"/>
<path d="M344 259L348.33 266.5H339.67L344 259Z" fill="#FEB941"/>
<path d="M364 259L368.33 266.5H359.67L364 259Z" fill="#FEB941"/>
<path d="M384 259L388.33 266.5H379.67L384 259Z" fill="#FEB941"/>
<path d="M404 259L408.33 266.5H399.67L404 259Z" fill="#FEB941"/>
<path d="M424 259L428.33 266.5H419.67L424 259Z" fill="#FEB941"/>
<path d="M444 259L448.33 266.5H439.67L444 259Z" fill="#FEB941"/>
<path d="M464 259L468.33 266.5H459.67L464 259Z" fill="#FEB941"/>
<path d="M484 259L488.33 266.5H479.67L484 259Z" fill="#FEB941"/>
<path d="M504 259L508.33 266.5H499.67L504 259Z" fill="#FEB941"/>
<path d="M524 259L528.33 266.5H519.67L524 259Z" fill="#FEB941"/>
<path d="M544 259L548.33 266.5H539.67L544 259Z" fill="#FEB941"/>
<path d="M564 259L568.33 266.5H559.67L564 259Z" fill="#FEB941"/>
<path d="M584 259L588.33 266.5H579.67L584 259Z" fill="#FEB941"/>
<path d="M604 259L608.33 266.5H599.67L604 259Z" fill="#FEB941"/>
<path d="M624 259L628.33 266.5H619.67L624 259Z" fill="#FEB941"/>
<path d="M644 259L648.33 266.5H639.67L644 259Z" fill="#FEB941"/>
<path d="M664 259L668.33 266.5H659.67L664 259Z" fill="#FEB941"/>
<path d="M684 259L688.33 266.5H679.67L684 259Z" fill="#FEB941"/>
<path d="M704 259L708.33 266.5H699.67L704 259Z" fill="#FEB941"/>
<path d="M124 279L128.33 286.5H119.67L124 279Z" fill="#FEB941"/>
<path d="M144 279L148.33 286.5H139.67L144 279Z" fill="#FEB941"/>
<path d="M164 279L168.33 286.5H159.67L164 279Z" fill="#FEB941"/>
<path d="M184 279L188.33 286.5H179.67L184 279Z" fill="#FEB941"/>
<path d="M204 279L208.33 286.5H199.67L204 279Z" fill="#FEB941"/>
<path d="M224 279L228.33 286.5H219.67L224 279Z" fill="#FEB941"/>
<path d="M244 279L248.33 286.5H239.67L244 279Z" fill="#FEB941"/>
<path d="M264 279L268.33 286.5H259.67L264 279Z" fill="#FEB941"/>
<path d="M284 279L288.33 286.5H279.67L284 279Z" fill="#FEB941"/>
<path d="M304 279L308.33 286.5H299.67L304 279Z" fill="#FEB941"/>
<path d="M324 279L328.33 286.5H319.67L324 279Z" fill="#FEB941"/>
<path d="M344 279L348.33 286.5H339.67L344 279Z" fill="#FEB941"/>
<path d="M364 279L368.33 286.5H359.67L364 279Z" fill="#FEB941"/>
<path d="M384 279L388.33 286.5H379.67L384 279Z" fill="#FEB941"/>
<path d="M404 279L408.33 286.5H399.67L404 279Z" fill="#FEB941"/>
<path d="M424 279L428.33 286.5H419.67L424 279Z" fill="#FEB941"/>
<path d="M444 279L448.33 286.5H439.67L444 279Z" fill="#FEB941"/>
<path d="M464 279L468.33 286.5H459.67L464 279Z" fill="#FEB941"/>
<path d="M484 279L488.33 286.5H479.67L484 279Z" fill="#FEB941"/>
<path d="M504 279L508.33 286.5H499.67L504 279Z" fill="#FEB941"/>
<path d="M524 279L528.33 286.5H519.67L524 279Z" fill="#FEB941"/>
<path d="M544 279L548.33 286.5H539.67L544 279Z" fill="#FEB941"/>
<path d="M564 279L568.33 286.5H559.67L564 279Z" fill="#FEB941"/>
<path d="M584 279L588.33 286.5H579.67L584 279Z" fill="#FEB941"/>
<path d="M604 279L608.33 286.5H599.67L604 279Z" fill="#FEB941"/>
<path d="M624 279L628.33 286.5H619.67L624 279Z" fill="#FEB941"/>
<path d="M644 279L648.33 286.5H639.67L644 279Z" fill="#FEB941"/>
<path d="M664 279L668.33 286.5H659.67L664 279Z" fill="#FEB941"/>
<path d="M684 279L688.33 286.5H679.67L684 279Z" fill="#FEB941"/>
<path d="M704 279L708.33 286.5H699.67L704 279Z" fill="#FEB941"/>
<path d="M124 299L128.33 306.5H119.67L124 299Z" fill="#FEB941"/>
<path d="M144 299L148.33 306.5H139.67L144 299Z" fill="#FEB941"/>
<path d="M164 299L168.33 306.5H159.67L164 299Z" fill="#FEB941"/>
<path d="M184 299L188.33 306.5H179.67L184 299Z" fill="#FEB941"/>
<path d="M204 299L208.33 306.5H199.67L204 299Z" fill="#FEB941"/>
<path d="M224 299L228.33 306.5H219.67L224 299Z" fill="#FEB941"/>
<path d="M244 299L248.33 306.5H239.67L244 299Z" fill="#FEB941"/>
<path d="M264 299L268.33 306.5H259.67L264 299Z" fill="#FEB941"/>
<path d="M284 299L288.33 306.5H279.67L284 299Z" fill="#FEB941"/>
<path d="M304 299L308.33 306.5H299.67L304 299Z" fill="#FEB941"/>
<path d="M324 299L328.33 306.5H319.67L324 299Z" fill="#FEB941"/>
<path d="M344 299L348.33 306.5H339.67L344 299Z" fill="#FEB941"/>
<path d="M364 299L368.33 306.5H359.67L364 299Z" fill="#FEB941"/>
<path d="M384 299L388.33 306.5H379.67L384 299Z" fill="#FEB941"/>
<path d="M404 299L408.33 306.5H399.67L404 299Z" fill="#FEB941"/>
<path d="M424 299L428.33 306.5H419.67L424 299Z" fill="#FEB941"/>
<path d="M444 299L448.33 306.5H439.67L444 299Z" fill="#FEB941"/>
<path d="M464 299L468.33 306.5H459.67L464 299Z" fill="#FEB941"/>
<path d="M484 299L488.33 306.5H479.67L484 299Z" fill="#FEB941"/>
<path d="M504 299L508.33 306.5H499.67L504 299Z" fill="#FEB941"/>
<path d="M524 299L528.33 306.5H519.67L524 299Z" fill="#FEB941"/>
<path d="M544 299L548.33 306.5H539.67L544 299Z" fill="#FEB941"/>
<path d="M564 299L568.33 306.5H559.67L564 299Z" fill="#FEB941"/>
<path d="M584 299L588.33 306.5H579.67L584 299Z" fill="#FEB941"/>
<path d="M604 299L608.33 306.5H599.67L604 299Z" fill="#FEB941"/>
<path d="M624 299L628.33 306.5H619.67L624 299Z" fill="#FEB941"/>
<path d="M644 299L648.33 306.5H639.67L644 299Z" fill="#FEB941"/>
<path d="M664 299L668.33 306.5H659.67L664 299Z" fill="#FEB941"/>
<path d="M684 299L688.33 306.5H679.67L684 299Z" fill="#FEB941"/>
<path d="M704 299L708.33 306.5H699.67L704 299Z" fill="#FEB941"/>
<path d="M124 319L128.33 326.5H119.67L124 319Z" fill="#FEB941"/>
<path d="M144 319L148.33 326.5H139.67L144 319Z" fill="#FEB941"/>
<path d="M164 319L168.33 326.5H159.67L164 319Z" fill="#FEB941"/>
<path d="M184 319L188.33 326.5H179.67L184 319Z" fill="#FEB941"/>
<path d="M204 319L208.33 326.5H199.67L204 319Z" fill="#FEB941"/>
<path d="M224 319L228.33 326.5H219.67L224 319Z" fill="#FEB941"/>
<path d="M244 319L248.33 326.5H239.67L244 319Z" fill="#FEB941"/>
<path d="M264 319L268.33 326.5H259.67L264 319Z" fill="#FEB941"/>
<path d="M284 319L288.33 326.5H279.67L284 319Z" fill="#FEB941"/>
<path d="M304 319L308.33 326.5H299.67L304 319Z" fill="#FEB941"/>
<path d="M324 319L328.33 326.5H319.67L324 319Z" fill="#FEB941"/>
<path d="M344 319L348.33 326.5H339.67L344 319Z" fill="#FEB941"/>
<path d="M364 319L368.33 326.5H359.67L364 319Z" fill="#FEB941"/>
<path d="M384 319L388.33 326.5H379.67L384 319Z" fill="#FEB941"/>
<path d="M404 319L408.33 326.5H399.67L404 319Z" fill="#FEB941"/>
<path d="M424 319L428.33 326.5H419.67L424 319Z" fill="#FEB941"/>
<path d="M444 319L448.33 326.5H439.67L444 319Z" fill="#FEB941"/>
<path d="M464 319L468.33 326.5H459.67L464 319Z" fill="#FEB941"/>
<path d="M484 319L488.33 326.5H479.67L484 319Z" fill="#FEB941"/>
<path d="M504 319L508.33 326.5H499.67L504 319Z" fill="#FEB941"/>
<path d="M524 319L528.33 326.5H519.67L524 319Z" fill="#FEB941"/>
<path d="M544 319L548.33 326.5H539.67L544 319Z" fill="#FEB941"/>
<path d="M564 319L568.33 326.5H559.67L564 319Z" fill="#FEB941"/>
<path d="M584 319L588.33 326.5H579.67L584 319Z" fill="#FEB941"/>
<path d="M604 319L608.33 326.5H599.67L604 319Z" fill="#FEB941"/>
<path d="M624 319L628.33 326.5H619.67L624 319Z" fill="#FEB941"/>
<path d="M644 319L648.33 326.5H639.67L644 319Z" fill="#FEB941"/>
<path d="M664 319L668.33 326.5H659.67L664 319Z" fill="#FEB941"/>
<path d="M684 319L688.33 326.5H679.67L684 319Z" fill="#FEB941"/>
<path d="M704 319L708.33 326.5H699.67L704 319Z" fill="#FEB941"/>
<path d="M124 339L128.33 346.5H119.67L124 339Z" fill="#FEB941"/>
<path d="M144 339L148.33 346.5H139.67L144 339Z" fill="#FEB941"/>
<path d="M164 339L168.33 346.5H159.67L164 339Z" fill="#FEB941"/>
<path d="M184 339L188.33 346.5H179.67L184 339Z" fill="#FEB941"/>
<path d="M204 339L208.33 346.5H199.67L204 339Z" fill="#FEB941"/>
<path d="M224 339L228.33 346.5H219.67L224 339Z" fill="#FEB941"/>
<path d="M244 339L248.33 346.5H239.67L244 339Z" fill="#FEB941"/>
<path d="M264 339L268.33 346.5H259.67L264 339Z" fill="#FEB941"/>
<path d="M284 339L288.33 346.5H279.67L284 339Z" fill="#FEB941"/>
<path d="M304 339L308.33 346.5H299.67L304 339Z" fill="#FEB941"/>
<path d="M324 339L328.33 346.5H319.67L324 339Z" fill="#FEB941"/>
<path d="M344 339L348.33 346.5H339.67L344 339Z" fill="#FEB941"/>
<path d="M364 339L368.33 346.5H359.67L364 339Z" fill="#FEB941"/>
<path d="M384 339L388.33 346.5H379.67L384 339Z" fill="#FEB941"/>
<path d="M404 339L408.33 346.5H399.67L404 339Z" fill="#FEB941"/>
<path d="M424 339L428.33 346.5H419.67L424 339Z" fill="#FEB941"/>
<path d="M444 339L448.33 346.5H439.67L444 339Z" fill="#FEB941"/>
<path d="M464 339L468.33 346.5H459.67L464 339Z" fill="#FEB941"/>
<path d="M484 339L488.33 346.5H479.67L484 339Z" fill="#FEB941"/>
<path d="M504 339L508.33 346.5H499.67L504 339Z" fill="#FEB941"/>
<path d="M524 339L528.33 346.5H519.67L524 339Z" fill="#FEB941"/>
<path d="M544 339L548.33 346.5H539.67L544 339Z" fill="#FEB941"/>
<path d="M564 339L568.33 346.5H559.67L564 339Z" fill="#FEB941"/>
<path d="M584 339L588.33 346.5H579.67L584 339Z" fill="#FEB941"/>
<path d="M604 339L608.33 346.5H599.67L604 339Z" fill="#FEB941"/>
<path d="M624 339L628.33 346.5H619.67L624 339Z" fill="#FEB941"/>
<path d="M644 339L648.33 346.5H639.67L644 339Z" fill="#FEB941"/>
<path d="M664 339L668.33 346.5H659.67L664 339Z" fill="#FEB941"/>
<path d="M684 339L688.33 346.5H679.67L684 339Z" fill="#FEB941"/>
<path d="M704 339L708.33 346.5H699.67L704 339Z" fill="#FEB941"/>
<path d="M124 359L128.33 366.5H119.67L124 359Z" fill="#FEB941"/>
<path d="M144 359L148.33 366.5H139.67L144 359Z" fill="#FEB941"/>
<path d="M164 359L168.33 366.5H159.67L164 359Z" fill="#FEB941"/>
<path d="M184 359L188.33 366.5H179.67L184 359Z" fill="#FEB941"/>
<path d="M204 359L208.33 366.5H199.67L204 359Z" fill="#FEB941"/>
<path d="M224 359L228.33 366.5H219.67L224 359Z" fill="#FEB941"/>
<path d="M244 359L248.33 366.5H239.67L244 359Z" fill="#FEB941"/>
<path d="M264 359L268.33 366.5H259.67L264 359Z" fill="#FEB941"/>
<path d="M284 359L288.33 366.5H279.67L284 359Z" fill="#FEB941"/>
<path d="M304 359L308.33 366.5H299.67L304 359Z" fill="#FEB941"/>
<path d="M324 359L328.33 366.5H319.67L324 359Z" fill="#FEB941"/>
<path d="M344 359L348.33 366.5H339.67L344 359Z" fill="#FEB941"/>
<path d="M364 359L368.33 366.5H359.67L364 359Z" fill="#FEB941"/>
<path d="M384 359L388.33 366.5H379.67L384 359Z" fill="#FEB941"/>
<path d="M404 359L408.33 366.5H399.67L404 359Z" fill="#FEB941"/>
<path d="M424 359L428.33 366.5H419.67L424 359Z" fill="#FEB941"/>
<path d="M444 359L448.33 366.5H439.67L444 359Z" fill="#FEB941"/>
<path d="M464 359L468.33 366.5H459.67L464 359Z" fill="#FEB941"/>
<path d="M484 359L488.33 366.5H479.67L484 359Z" fill="#FEB941"/>
<path d="M504 359L508.33 366.5H499.67L504 359Z" fill="#FEB941"/>
<path d="M524 359L528.33 366.5H519.67L524 359Z" fill="#FEB941"/>
<path d="M544 359L548.33 366.5H539.67L544 359Z" fill="#FEB941"/>
<path d="M564 359L568.33 366.5H559.67L564 359Z" fill="#FEB941"/>
<path d="M584 359L588.33 366.5H579.67L584 359Z" fill="#FEB941"/>
<path d="M604 359L608.33 366.5H599.67L604 359Z" fill="#FEB941"/>
<path d="M624 359L628.33 366.5H619.67L624 359Z" fill="#FEB941"/>
<path d="M644 359L648.33 366.5H639.67L644 359Z" fill="#FEB941"/>
<path d="M664 359L668.33 366.5H659.67L664 359Z" fill="#FEB941"/>
<path d="M684 359L688.33 366.5H679.67L684 359Z" fill="#FEB941"/>
<path d="M704 359L708.33 366.5H699.67L704 359Z" fill="#FEB941"/>
<path d="M124 379L128.33 386.5H119.67L124 379Z" fill="#FEB941"/>
<path d="M144 379L148.33 386.5H139.67L144 379Z" fill="#FEB941"/>
<path d="M164 379L168.33 386.5H159.67L164 379Z" fill="#FEB941"/>
<path d="M184 379L188.33 386.5H179.67L184 379Z" fill="#FEB941"/>
<path d="M204 379L208.33 386.5H199.67L204 379Z" fill="#FEB941"/>
<path d="M224 379L228.33 386.5H219.67L224 379Z" fill="#FEB941"/>
<path d="M244 379L248.33 386.5H239.67L244 379Z" fill="#FEB941"/>
<path d="M264 379L268.33 386.5H259.67L264 379Z" fill="#FEB941"/>
<path d="M284 379L288.33 386.5H279.67L284 379Z" fill="#FEB941"/>
<path d="M304 379L308.33 386.5H299.67L304 379Z" fill="#FEB941"/>
<path d="M324 379L328.33 386.5H319.67L324 379Z" fill="#FEB941"/>
<path d="M344 379L348.33 386.5H339.67L344 379Z" fill="#FEB941"/>
<path d="M364 379L368.33 386.5H359.67L364 379Z" fill="#FEB941"/>
<path d="M384 379L388.33 386.5H379.67L384 379Z" fill="#FEB941"/>
<path d="M404 379L408.33 386.5H399.67L404 379Z" fill="#FEB941"/>
<path d="M424 379L428.33 386.5H419.67L424 379Z" fill="#FEB941"/>
<path d="M444 379L448.33 386.5H439.67L444 379Z" fill="#FEB941"/>
<path d="M464 379L468.33 386.5H459.67L464 379Z" fill="#FEB941"/>
<path d="M484 379L488.33 386.5H479.67L484 379Z" fill="#FEB941"/>
<path d="M504 379L508.33 386.5H499.67L504 379Z" fill="#FEB941"/>
<path d="M524 379L528.33 386.5H519.67L524 379Z" fill="#FEB941"/>
<path d="M544 379L548.33 386.5H539.67L544 379Z" fill="#FEB941"/>
<path d="M564 379L568.33 386.5H559.67L564 379Z" fill="#FEB941"/>
<path d="M584 379L588.33 386.5H579.67L584 379Z" fill="#FEB941"/>
<path d="M604 379L608.33 386.5H599.67L604 379Z" fill="#FEB941"/>
<path d="M624 379L628.33 386.5H619.67L624 379Z" fill="#FEB941"/>
<path d="M644 379L648.33 386.5H639.67L644 379Z" fill="#FEB941"/>
<path d="M664 379L668.33 386.5H659.67L664 379Z" fill="#FEB941"/>
<path d="M684 379L688.33 386.5H679.67L684 379Z" fill="#FEB941"/>
<path d="M704 379L708.33 386.5H699.67L704 379Z" fill="#FEB941"/>
<path d="M124 399L128.33 406.5H119.67L124 399Z" fill="#FEB941"/>
<path d="M144 399L148.33 406.5H139.67L144 399Z" fill="#FEB941"/>
<path d="M164 399L168.33 406.5H159.67L164 399Z" fill="#FEB941"/>
<path d="M184 399L188.33 406.5H179.67L184 399Z" fill="#FEB941"/>
<path d="M204 399L208.33 406.5H199.67L204 399Z" fill="#FEB941"/>
<path d="M224 399L228.33 406.5H219.67L224 399Z" fill="#FEB941"/>
<path d="M244 399L248.33 406.5H239.67L244 399Z" fill="#FEB941"/>
<path d="M264 399L268.33 406.5H259.67L264 399Z" fill="#FEB941"/>
<path d="M284 399L288.33 406.5H279.67L284 399Z" fill="#FEB941"/>
<path d="M304 399L308.33 406.5H299.67L304 399Z" fill="#FEB941"/>
<path d="M324 399L328.33 406.5H319.67L324 399Z" fill="#FEB941"/>
<path d="M344 399L348.33 406.5H339.67L344 399Z" fill="#FEB941"/>
<path d="M364 399L368.33 406.5H359.67L364 399Z" fill="#FEB941"/>
<path d="M384 399L388.33 406.5H379.67L384 399Z" fill="#FEB941"/>
<path d="M404 399L408.33 406.5H399.67L404 399Z" fill="#FEB941"/>
<path d="M424 399L428.33 406.5H419.67L424 399Z" fill="#FEB941"/>
<path d="M444 399L448.33 406.5H439.67L444 399Z" fill="#FEB941"/>
<path d="M464 399L468.33 406.5H459.67L464 399Z" fill="#FEB941"/>
<path d="M484 399L488.33 406.5H479.67L484 399Z" fill="#FEB941"/>
<path d="M504 399L508.33 406.5H499.67L504 399Z" fill="#FEB941"/>
<path d="M524 399L528.33 406.5H519.67L524 399Z" fill="#FEB941"/>
<path d="M544 399L548.33 406.5H539.67L544 399Z" fill="#FEB941"/>
<path d="M564 399L568.33 406.5H559.67L564 399Z" fill="#FEB941"/>
<path d="M584 399L588.33 406.5H579.67L584 399Z" fill="#FEB941"/>
<path d="M604 399L608.33 406.5H599.67L604 399Z" fill="#FEB941"/>
<path d="M624 399L628.33 406.5H619.67L624 399Z" fill="#FEB941"/>
<path d="M644 399L648.33 406.5H639.67L644 399Z" fill="#FEB941"/>
<path d="M664 399L668.33 406.5H659.67L664 399Z" fill="#FEB941"/>
<path d="M684 399L688.33 406.5H679.67L684 399Z" fill="#FEB941"/>
<path d="M704 399L708.33 406.5H699.67L704 399Z" fill="#FEB941"/>
<path d="M124 419L128.33 426.5H119.67L124 419Z" fill="#FEB941"/>
<path d="M144 419L148.33 426.5H139.67L144 419Z" fill="#FEB941"/>
<path d="M164 419L168.33 426.5H159.67L164 419Z" fill="#FEB941"/>
<path d="M184 419L188.33 426.5H179.67L184 419Z" fill="#FEB941"/>
<path d="M204 419L208.33 426.5H199.67L204 419Z" fill="#FEB941"/>
<path d="M224 419L228.33 426.5H219.67L224 419Z" fill="#FEB941"/>
<path d="M244 419L248.33 426.5H239.67L244 419Z" fill="#FEB941"/>
<path d="M264 419L268.33 426.5H259.67L264 419Z" fill="#FEB941"/>
<path d="M284 419L288.33 426.5H279.67L284 419Z" fill="#FEB941"/>
<path d="M304 419L308.33 426.5H299.67L304 419Z" fill="#FEB941"/>
<path d="M324 419L328.33 426.5H319.67L324 419Z" fill="#FEB941"/>
<path d="M344 419L348.33 426.5H339.67L344 419Z" fill="#FEB941"/>
<path d="M364 419L368.33 426.5H359.67L364 419Z" fill="#FEB941"/>
<path d="M384 419L388.33 426.5H379.67L384 419Z" fill="#FEB941"/>
<path d="M404 419L408.33 426.5H399.67L404 419Z" fill="#FEB941"/>
<path d="M424 419L428.33 426.5H419.67L424 419Z" fill="#FEB941"/>
<path d="M444 419L448.33 426.5H439.67L444 419Z" fill="#FEB941"/>
<path d="M464 419L468.33 426.5H459.67L464 419Z" fill="#FEB941"/>
<path d="M484 419L488.33 426.5H479.67L484 419Z" fill="#FEB941"/>
<path d="M504 419L508.33 426.5H499.67L504 419Z" fill="#FEB941"/>
<path d="M524 419L528.33 426.5H519.67L524 419Z" fill="#FEB941"/>
<path d="M544 419L548.33 426.5H539.67L544 419Z" fill="#FEB941"/>
<path d="M564 419L568.33 426.5H559.67L564 419Z" fill="#FEB941"/>
<path d="M584 419L588.33 426.5H579.67L584 419Z" fill="#FEB941"/>
<path d="M604 419L608.33 426.5H599.67L604 419Z" fill="#FEB941"/>
<path d="M624 419L628.33 426.5H619.67L624 419Z" fill="#FEB941"/>
<path d="M644 419L648.33 426.5H639.67L644 419Z" fill="#FEB941"/>
<path d="M664 419L668.33 426.5H659.67L664 419Z" fill="#FEB941"/>
<path d="M684 419L688.33 426.5H679.67L684 419Z" fill="#FEB941"/>
<path d="M704 419L708.33 426.5H699.67L704 419Z" fill="#FEB941"/>
<path d="M124 439L128.33 446.5H119.67L124 439Z" fill="#FEB941"/>
<path d="M144 439L148.33 446.5H139.67L144 439Z" fill="#FEB941"/>
<path d="M164 439L168.33 446.5H159.67L164 439Z" fill="#FEB941"/>
<path d="M184 439L188.33 446.5H179.67L184 439Z" fill="#FEB941"/>
<path d="M204 439L208.33 446.5H199.67L204 439Z" fill="#FEB941"/>
<path d="M224 439L228.33 446.5H219.67L224 439Z" fill="#FEB941"/>
<path d="M244 439L248.33 446.5H239.67L244 439Z" fill="#FEB941"/>
<path d="M264 439L268.33 446.5H259.67L264 439Z" fill="#FEB941"/>
<path d="M284 439L288.33 446.5H279.67L284 439Z" fill="#FEB941"/>
<path d="M304 439L308.33 446.5H299.67L304 439Z" fill="#FEB941"/>
<path d="M324 439L328.33 446.5H319.67L324 439Z" fill="#FEB941"/>
<path d="M344 439L348.33 446.5H339.67L344 439Z" fill="#FEB941"/>
<path d="M364 439L368.33 446.5H359.67L364 439Z" fill="#FEB941"/>
<path d="M384 439L388.33 446.5H379.67L384 439Z" fill="#FEB941"/>
<path d="M404 439L408.33 446.5H399.67L404 439Z" fill="#FEB941"/>
<path d="M424 439L428.33 446.5H419.67L424 439Z" fill="#FEB941"/>
<path d="M444 439L448.33 446.5H439.67L444 439Z" fill="#FEB941"/>
<path d="M464 439L468.33 446.5H459.67L464 439Z" fill="#FEB941"/>
<path d="M484 439L488.33 446.5H479.67L484 439Z" fill="#FEB941"/>
<path d="M504 439L508.33 446.5H499.67L504 439Z" fill="#FEB941"/>
<path d="M524 439L528.33 446.5H519.67L524 439Z" fill="#FEB941"/>
<path d="M544 439L548.33 446.5H539.67L544 439Z" fill="#FEB941"/>
<path d="M564 439L568.33 446.5H559.67L564 439Z" fill="#FEB941"/>
<path d="M584 439L588.33 446.5H579.67L584 439Z" fill="#FEB941"/>
<path d="M604 439L608.33 446.5H599.67L604 439Z" fill="#FEB941"/>
<path d="M624 439L628.33 446.5H619.67L624 439Z" fill="#FEB941"/>
<path d="M644 439L648.33 446.5H639.67L644 439Z" fill="#FEB941"/>
<path d="M664 439L668.33 446.5H659.67L664 439Z" fill="#FEB941"/>
<path d="M684 439L688.33 446.5H679.67L684 439Z" fill="#FEB941"/>
<path d="M704 439L708.33 446.5H699.67L704 439Z" fill="#FEB941"/>
<path d="M124 459L128.33 466.5H119.67L124 459Z" fill="#FEB941"/>
<path d="M144 459L148.33 466.5H139.67L144 459Z" fill="#FEB941"/>
<path d="M164 459L168.33 466.5H159.67L164 459Z" fill="#FEB941"/>
<path d="M184 459L188.33 466.5H179.67L184 459Z" fill="#FEB941"/>
<path d="M204 459L208.33 466.5H199.67L204 459Z" fill="#FEB941"/>
<path d="M224 459L228.33 466.5H219.67L224 459Z" fill="#FEB941"/>
<path d="M244 459L248.33 466.5H239.67L244 459Z" fill="#FEB941"/>
<path d="M264 459L268.33 466.5H259.67L264 459Z" fill="#FEB941"/>
<path d="M284 459L288.33 466.5H279.67L284 459Z" fill="#FEB941"/>
<path d="M304 459L308.33 466.5H299.67L304 459Z" fill="#FEB941"/>
<path d="M324 459L328.33 466.5H319.67L324 459Z" fill="#FEB941"/>
<path d="M344 459L348.33 466.5H339.67L344 459Z" fill="#FEB941"/>
<path d="M364 459L368.33 466.5H359.67L364 459Z" fill="#FEB941"/>
<path d="M384 459L388.33 466.5H379.67L384 459Z" fill="#FEB941"/>
<path d="M404 459L408.33 466.5H399.67L404 459Z" fill="#FEB941"/>
<path d="M424 459L428.33 466.5H419.67L424 459Z" fill="#FEB941"/>
<path d="M444 459L448.33 466.5H439.67L444 459Z" fill="#FEB941"/>
<path d="M464 459L468.33 466.5H459.67L464 459Z" fill="#FEB941"/>
<path d="M484 459L488.33 466.5H479.67L484 459Z" fill="#FEB941"/>
<path d="M504 459L508.33 466.5H499.67L504 459Z" fill="#FEB941"/>
<path d="M524 459L528.33 466.5H519.67L524 459Z" fill="#FEB941"/>
<path d="M544 459L548.33 466.5H539.67L544 459Z" fill="#FEB941"/>
<path d="M564 459L568.33 466.5H559.67L564 459Z" fill="#FEB941"/>
<path d="M584 459L588.33 466.5H579.67L584 459Z" fill="#FEB941"/>
<path d="M604 459L608.33 466.5H599.67L604 459Z" fill="#FEB941"/>
<path d="M624 459L628.33 466.5H619.67L624 459Z" fill="#FEB941"/>
<path d="M644 459L648.33 466.5H639.67L644 459Z" fill="#FEB941"/>
<path d="M664 459L668.33 466.5H659.67L664 459Z" fill="#FEB941"/>
<path d="M684 459L688.33 466.5H679.67L684 459Z" fill="#FEB941"/>
<path d="M704 459L708.33 466.5H699.67L704 459Z" fill="#FEB941"/>
<path d="M124 479L128.33 486.5H119.67L124 479Z" fill="#FEB941"/>
<path d="M144 479L148.33 486.5H139.67L144 479Z" fill="#FEB941"/>
<path d="M164 479L168.33 486.5H159.67L164 479Z" fill="#FEB941"/>
<path d="M184 479L188.33 486.5H179.67L184 479Z" fill="#FEB941"/>
<path d="M204 479L208.33 486.5H199.67L204 479Z" fill="#FEB941"/>
<path d="M224 479L228.33 486.5H219.67L224 479Z" fill="#FEB941"/>
<path d="M244 479L248.33 486.5H239.67L244 479Z" fill="#FEB941"/>
<path d="M264 479L268.33 486.5H259.67L264 479Z" fill="#FEB941"/>
<path d="M284 479L288.33 486.5H279.67L284 479Z" fill="#FEB941"/>
<path d="M304 479L308.33 486.5H299.67L304 479Z" fill="#FEB941"/>
<path d="M324 479L328.33 486.5H319.67L324 479Z" fill="#FEB941"/>
<path d="M344 479L348.33 486.5H339.67L344 479Z" fill="#FEB941"/>
<path d="M364 479L368.33 486.5H359.67L364 479Z" fill="#FEB941"/>
<path d="M384 479L388.33 486.5H379.67L384 479Z" fill="#FEB941"/>
<path d="M404 479L408.33 486.5H399.67L404 479Z" fill="#FEB941"/>
<path d="M424 479L428.33 486.5H419.67L424 479Z" fill="#FEB941"/>
<path d="M444 479L448.33 486.5H439.67L444 479Z" fill="#FEB941"/>
<path d="M464 479L468.33 486.5H459.67L464 479Z" fill="#FEB941"/>
<path d="M484 479L488.33 486.5H479.67L484 479Z" fill="#FEB941"/>
<path d="M504 479L508.33 486.5H499.67L504 479Z" fill="#FEB941"/>
<path d="M524 479L528.33 486.5H519.67L524 479Z" fill="#FEB941"/>
<path d="M544 479L548.33 486.5H539.67L544 479Z" fill="#FEB941"/>
<path d="M564 479L568.33 486.5H559.67L564 479Z" fill="#FEB941"/>
<path d="M584 479L588.33 486.5H579.67L584 479Z" fill="#FEB941"/>
<path d="M604 479L608.33 486.5H599.67L604 479Z" fill="#FEB941"/>
<path d="M624 479L628.33 486.5H619.67L624 479Z" fill="#FEB941"/>
<path d="M644 479L648.33 486.5H639.67L644 479Z" fill="#FEB941"/>
<path d="M664 479L668.33 486.5H659.67L664 479Z" fill="#FEB941"/>
<path d="M684 479L688.33 486.5H679.67L684 479Z" fill="#FEB941"/>
<path d="M704 479L708.33 486.5H699.67L704 479Z" fill="#FEB941"/>
<path d="M124 499L128.33 506.5H119.67L124 499Z" fill="#FEB941"/>
<path d="M144 499L148.33 506.5H139.67L144 499Z" fill="#FEB941"/>
<path d="M164 499L168.33 506.5H159.67L164 499Z" fill="#FEB941"/>
<path d="M184 499L188.33 506.5H179.67L184 499Z" fill="#FEB941"/>
<path d="M204 499L208.33 506.5H199.67L204 499Z" fill="#FEB941"/>
<path d="M224 499L228.33 506.5H219.67L224 499Z" fill="#FEB941"/>
<path d="M244 499L248.33 506.5H239.67L244 499Z" fill="#FEB941"/>
<path d="M264 499L268.33 506.5H259.67L264 499Z" fill="#FEB941"/>
<path d="M284 499L288.33 506.5H279.67L284 499Z" fill="#FEB941"/>
<path d="M304 499L308.33 506.5H299.67L304 499Z" fill="#FEB941"/>
<path d="M324 499L328.33 506.5H319.67L324 499Z" fill="#FEB941"/>
<path d="M344 499L348.33 506.5H339.67L344 499Z" fill="#FEB941"/>
<path d="M364 499L368.33 506.5H359.67L364 499Z" fill="#FEB941"/>
<path d="M384 499L388.33 506.5H379.67L384 499Z" fill="#FEB941"/>
<path d="M404 499L408.33 506.5H399.67L404 499Z" fill="#FEB941"/>
<path d="M424 499L428.33 506.5H419.67L424 499Z" fill="#FEB941"/>
<path d="M444 499L448.33 506.5H439.67L444 499Z" fill="#FEB941"/>
<path d="M464 499L468.33 506.5H459.67L464 499Z" fill="#FEB941"/>
<path d="M484 499L488.33 506.5H479.67L484 499Z" fill="#FEB941"/>
<path d="M504 499L508.33 506.5H499.67L504 499Z" fill="#FEB941"/>
<path d="M524 499L528.33 506.5H519.67L524 499Z" fill="#FEB941"/>
<path d="M544 499L548.33 506.5H539.67L544 499Z" fill="#FEB941"/>
<path d="M564 499L568.33 506.5H559.67L564 499Z" fill="#FEB941"/>
<path d="M584 499L588.33 506.5H579.67L584 499Z" fill="#FEB941"/>
<path d="M604 499L608.33 506.5H599.67L604 499Z" fill="#FEB941"/>
<path d="M624 499L628.33 506.5H619.67L624 499Z" fill="#FEB941"/>
<path d="M644 499L648.33 506.5H639.67L644 499Z" fill="#FEB941"/>
<path d="M664 499L668.33 506.5H659.67L664 499Z" fill="#FEB941"/>
<path d="M684 499L688.33 506.5H679.67L684 499Z" fill="#FEB941"/>
<path d="M704 499L708.33 506.5H699.67L704 499Z" fill="#FEB941"/>
<path d="M124 519L128.33 526.5H119.67L124 519Z" fill="#FEB941"/>
<path d="M144 519L148.33 526.5H139.67L144 519Z" fill="#FEB941"/>
<path d="M164 519L168.33 526.5H159.67L164 519Z" fill="#FEB941"/>
<path d="M184 519L188.33 526.5H179.67L184 519Z" fill="#FEB941"/>
<path d="M204 519L208.33 526.5H199.67L204 519Z" fill="#FEB941"/>
<path d="M224 519L228.33 526.5H219.67L224 519Z" fill="#FEB941"/>
<path d="M244 519L248.33 526.5H239.67L244 519Z" fill="#FEB941"/>
<path d="M264 519L268.33 526.5H259.67L264 519Z" fill="#FEB941"/>
<path d="M284 519L288.33 526.5H279.67L284 519Z" fill="#FEB941"/>
<path d="M304 519L308.33 526.5H299.67L304 519Z" fill="#FEB941"/>
<path d="M324 519L328.33 526.5H319.67L324 519Z" fill="#FEB941"/>
<path d="M344 519L348.33 526.5H339.67L344 519Z" fill="#FEB941"/>
<path d="M364 519L368.33 526.5H359.67L364 519Z" fill="#FEB941"/>
<path d="M384 519L388.33 526.5H379.67L384 519Z" fill="#FEB941"/>
<path d="M404 519L408.33 526.5H399.67L404 519Z" fill="#FEB941"/>
<path d="M424 519L428.33 526.5H419.67L424 519Z" fill="#FEB941"/>
<path d="M444 519L448.33 526.5H439.67L444 519Z" fill="#FEB941"/>
<path d="M464 519L468.33 526.5H459.67L464 519Z" fill="#FEB941"/>
<path d="M484 519L488.33 526.5H479.67L484 519Z" fill="#FEB941"/>
<path d="M504 519L508.33 526.5H499.67L504 519Z" fill="#FEB941"/>
<path d="M524 519L528.33 526.5H519.67L524 519Z" fill="#FEB941"/>
<path d="M544 519L548.33 526.5H539.67L544 519Z" fill="#FEB941"/>
<path d="M564 519L568.33 526.5H559.67L564 519Z" fill="#FEB941"/>
<path d="M584 519L588.33 526.5H579.67L584 519Z" fill="#FEB941"/>
<path d="M604 519L608.33 526.5H599.67L604 519Z" fill="#FEB941"/>
<path d="M624 519L628.33 526.5H619.67L624 519Z" fill="#FEB941"/>
<path d="M644 519L648.33 526.5H639.67L644 519Z" fill="#FEB941"/>
<path d="M664 519L668.33 526.5H659.67L664 519Z" fill="#FEB941"/>
<path d="M684 519L688.33 526.5H679.67L684 519Z" fill="#FEB941"/>
<path d="M704 519L708.33 526.5H699.67L704 519Z" fill="#FEB941"/>
<path d="M124 539L128.33 546.5H119.67L124 539Z" fill="#FEB941"/>
<path d="M144 539L148.33 546.5H139.67L144 539Z" fill="#FEB941"/>
<path d="M164 539L168.33 546.5H159.67L164 539Z" fill="#FEB941"/>
<path d="M184 539L188.33 546.5H179.67L184 539Z" fill="#FEB941"/>
<path d="M204 539L208.33 546.5H199.67L204 539Z" fill="#FEB941"/>
<path d="M224 539L228.33 546.5H219.67L224 539Z" fill="#FEB941"/>
<path d="M244 539L248.33 546.5H239.67L244 539Z" fill="#FEB941"/>
<path d="M264 539L268.33 546.5H259.67L264 539Z" fill="#FEB941"/>
<path d="M284 539L288.33 546.5H279.67L284 539Z" fill="#FEB941"/>
<path d="M304 539L308.33 546.5H299.67L304 539Z" fill="#FEB941"/>
<path d="M324 539L328.33 546.5H319.67L324 539Z" fill="#FEB941"/>
<path d="M344 539L348.33 546.5H339.67L344 539Z" fill="#FEB941"/>
<path d="M364 539L368.33 546.5H359.67L364 539Z" fill="#FEB941"/>
<path d="M384 539L388.33 546.5H379.67L384 539Z" fill="#FEB941"/>
<path d="M404 539L408.33 546.5H399.67L404 539Z" fill="#FEB941"/>
<path d="M424 539L428.33 546.5H419.67L424 539Z" fill="#FEB941"/>
<path d="M444 539L448.33 546.5H439.67L444 539Z" fill="#FEB941"/>
<path d="M464 539L468.33 546.5H459.67L464 539Z" fill="#FEB941"/>
<path d="M484 539L488.33 546.5H479.67L484 539Z" fill="#FEB941"/>
<path d="M504 539L508.33 546.5H499.67L504 539Z" fill="#FEB941"/>
<path d="M524 539L528.33 546.5H519.67L524 539Z" fill="#FEB941"/>
<path d="M544 539L548.33 546.5H539.67L544 539Z" fill="#FEB941"/>
<path d="M564 539L568.33 546.5H559.67L564 539Z" fill="#FEB941"/>
<path d="M584 539L588.33 546.5H579.67L584 539Z" fill="#FEB941"/>
<path d="M604 539L608.33 546.5H599.67L604 539Z" fill="#FEB941"/>
<path d="M624 539L628.33 546.5H619.67L624 539Z" fill="#FEB941"/>
<path d="M644 539L648.33 546.5H639.67L644 539Z" fill="#FEB941"/>
<path d="M664 539L668.33 546.5H659.67L664 539Z" fill="#FEB941"/>
<path d="M684 539L688.33 546.5H679.67L684 539Z" fill="#FEB941"/>
<path d="M704 539L708.33 546.5H699.67L704 539Z" fill="#FEB941"/>
<path d="M124 559L128.33 566.5H119.67L124 559Z" fill="#FEB941"/>
<path d="M144 559L148.33 566.5H139.67L144 559Z" fill="#FEB941"/>
<path d="M164 559L168.33 566.5H159.67L164 559Z" fill="#FEB941"/>
<path d="M184 559L188.33 566.5H179.67L184 559Z" fill="#FEB941"/>
<path d="M204 559L208.33 566.5H199.67L204 559Z" fill="#FEB941"/>
<path d="M224 559L228.33 566.5H219.67L224 559Z" fill="#FEB941"/>
<path d="M244 559L248.33 566.5H239.67L244 559Z" fill="#FEB941"/>
<path d="M264 559L268.33 566.5H259.67L264 559Z" fill="#FEB941"/>
<path d="M284 559L288.33 566.5H279.67L284 559Z" fill="#FEB941"/>
<path d="M304 559L308.33 566.5H299.67L304 559Z" fill="#FEB941"/>
<path d="M324 559L328.33 566.5H319.67L324 559Z" fill="#FEB941"/>
<path d="M344 559L348.33 566.5H339.67L344 559Z" fill="#FEB941"/>
<path d="M364 559L368.33 566.5H359.67L364 559Z" fill="#FEB941"/>
<path d="M384 559L388.33 566.5H379.67L384 559Z" fill="#FEB941"/>
<path d="M404 559L408.33 566.5H399.67L404 559Z" fill="#FEB941"/>
<path d="M424 559L428.33 566.5H419.67L424 559Z" fill="#FEB941"/>
<path d="M444 559L448.33 566.5H439.67L444 559Z" fill="#FEB941"/>
<path d="M464 559L468.33 566.5H459.67L464 559Z" fill="#FEB941"/>
<path d="M484 559L488.33 566.5H479.67L484 559Z" fill="#FEB941"/>
<path d="M504 559L508.33 566.5H499.67L504 559Z" fill="#FEB941"/>
<path d="M524 559L528.33 566.5H519.67L524 559Z" fill="#FEB941"/>
<path d="M544 559L548.33 566.5H539.67L544 559Z" fill="#FEB941"/>
<path d="M564 559L568.33 566.5H559.67L564 559Z" fill="#FEB941"/>
<path d="M584 559L588.33 566.5H579.67L584 559Z" fill="#FEB941"/>
<path d="M604 559L608.33 566.5H599.67L604 559Z" fill="#FEB941"/>
<path d="M624 559L628.33 566.5H619.67L624 559Z" fill="#FEB941"/>
<path d="M644 559L648.33 566.5H639.67L644 559Z" fill="#FEB941"/>
<path d="M664 559L668.33 566.5H659.67L664 559Z" fill="#FEB941"/>
<path d="M684 559L688.33 566.5H679.67L684 559Z" fill="#FEB941"/>
<path d="M704 559L708.33 566.5H699.67L704 559Z" fill="#FEB941"/>
<path d="M124 579L128.33 586.5H119.67L124 579Z" fill="#FEB941"/>
<path d="M144 579L148.33 586.5H139.67L144 579Z" fill="#FEB941"/>
<path d="M164 579L168.33 586.5H159.67L164 579Z" fill="#FEB941"/>
<path d="M184 579L188.33 586.5H179.67L184 579Z" fill="#FEB941"/>
<path d="M204 579L208.33 586.5H199.67L204 579Z" fill="#FEB941"/>
<path d="M224 579L228.33 586.5H219.67L224 579Z" fill="#FEB941"/>
<path d="M244 579L248.33 586.5H239.67L244 579Z" fill="#FEB941"/>
<path d="M264 579L268.33 586.5H259.67L264 579Z" fill="#FEB941"/>
<path d="M284 579L288.33 586.5H279.67L284 579Z" fill="#FEB941"/>
<path d="M304 579L308.33 586.5H299.67L304 579Z" fill="#FEB941"/>
<path d="M324 579L328.33 586.5H319.67L324 579Z" fill="#FEB941"/>
<path d="M344 579L348.33 586.5H339.67L344 579Z" fill="#FEB941"/>
<path d="M364 579L368.33 586.5H359.67L364 579Z" fill="#FEB941"/>
<path d="M384 579L388.33 586.5H379.67L384 579Z" fill="#FEB941"/>
<path d="M404 579L408.33 586.5H399.67L404 579Z" fill="#FEB941"/>
<path d="M424 579L428.33 586.5H419.67L424 579Z" fill="#FEB941"/>
<path d="M444 579L448.33 586.5H439.67L444 579Z" fill="#FEB941"/>
<path d="M464 579L468.33 586.5H459.67L464 579Z" fill="#FEB941"/>
<path d="M484 579L488.33 586.5H479.67L484 579Z" fill="#FEB941"/>
<path d="M504 579L508.33 586.5H499.67L504 579Z" fill="#FEB941"/>
<path d="M524 579L528.33 586.5H519.67L524 579Z" fill="#FEB941"/>
<path d="M544 579L548.33 586.5H539.67L544 579Z" fill="#FEB941"/>
<path d="M564 579L568.33 586.5H559.67L564 579Z" fill="#FEB941"/>
<path d="M584 579L588.33 586.5H579.67L584 579Z" fill="#FEB941"/>
<path d="M604 579L608.33 586.5H599.67L604 579Z" fill="#FEB941"/>
<path d="M624 579L628.33 586.5H619.67L624 579Z" fill="#FEB941"/>
<path d="M644 579L648.33 586.5H639.67L644 579Z" fill="#FEB941"/>
<path d="M664 579L668.33 586.5H659.67L664 579Z" fill="#FEB941"/>
<path d="M684 579L688.33 586.5H679.67L684 579Z" fill="#FEB941"/>
<path d="M704 579L708.33 586.5H699.67L704 579Z" fill="#FEB941"/>
<path d="M124 599L128.33 606.5H119.67L124 599Z" fill="#FEB941"/>
<path d="M144 599L148.33 606.5H139.67L144 599Z" fill="#FEB941"/>
<path d="M164 599L168.33 606.5H159.67L164 599Z" fill="#FEB941"/>
<path d="M184 599L188.33 606.5H179.67L184 599Z" fill="#FEB941"/>
<path d="M204 599L208.33 606.5H199.67L204 599Z" fill="#FEB941"/>
<path d="M224 599L228.33 606.5H219.67L224 599Z" fill="#FEB941"/>
<path d="M244 599L248.33 606.5H239.67L244 599Z" fill="#FEB941"/>
<path d="M264 599L268.33 606.5H259.67L264 599Z" fill="#FEB941"/>
<path d="M284 599L288.33 606.5H279.67L284 599Z" fill="#FEB941"/>
<path d="M304 599L308.33 606.5H299.67L304 599Z" fill="#FEB941"/>
<path d="M324 599L328.33 606.5H319.67L324 599Z" fill="#FEB941"/>
<path d="M344 599L348.33 606.5H339.67L344 599Z" fill="#FEB941"/>
<path d="M364 599L368.33 606.5H359.67L364 599Z" fill="#FEB941"/>
<path d="M384 599L388.33 606.5H379.67L384 599Z" fill="#FEB941"/>
<path d="M404 599L408.33 606.5H399.67L404 599Z" fill="#FEB941"/>
<path d="M424 599L428.33 606.5H419.67L424 599Z" fill="#FEB941"/>
<path d="M444 599L448.33 606.5H439.67L444 599Z" fill="#FEB941"/>
<path d="M464 599L468.33 606.5H459.67L464 599Z" fill="#FEB941"/>
<path d="M484 599L488.33 606.5H479.67L484 599Z" fill="#FEB941"/>
<path d="M504 599L508.33 606.5H499.67L504 599Z" fill="#FEB941"/>
<path d="M524 599L528.33 606.5H519.67L524 599Z" fill="#FEB941"/>
<path d="M544 599L548.33 606.5H539.67L544 599Z" fill="#FEB941"/>
<path d="M564 599L568.33 606.5H559.67L564 599Z" fill="#FEB941"/>
<path d="M584 599L588.33 606.5H579.67L584 599Z" fill="#FEB941"/>
<path d="M604 599L608.33 606.5H599.67L604 599Z" fill="#FEB941"/>
<path d="M624 599L628.33 606.5H619.67L624 599Z" fill="#FEB941"/>
<path d="M644 599L648.33 606.5H639.67L644 599Z" fill="#FEB941"/>
<path d="M664 599L668.33 606.5H659.67L664 599Z" fill="#FEB941"/>
<path d="M684 599L688.33 606.5H679.67L684 599Z" fill="#FEB941"/>
<path d="M704 599L708.33 606.5H699.67L704 599Z" fill="#FEB941"/>
<path d="M124 619L128.33 626.5H119.67L124 619Z" fill="#FEB941"/>
<path d="M144 619L148.33 626.5H139.67L144 619Z" fill="#FEB941"/>
<path d="M164 619L168.33 626.5H159.67L164 619Z" fill="#FEB941"/>
<path d="M184 619L188.33 626.5H179.67L184 619Z" fill="#FEB941"/>
<path d="M204 619L208.33 626.5H199.67L204 619Z" fill="#FEB941"/>
<path d="M224 619L228.33 626.5H219.67L224 619Z" fill="#FEB941"/>
<path d="M244 619L248.33 626.5H239.67L244 619Z" fill="#FEB941"/>
<path d="M264 619L268.33 626.5H259.67L264 619Z" fill="#FEB941"/>
<path d="M284 619L288.33 626.5H279.67L284 619Z" fill="#FEB941"/>
<path d="M304 619L308.33 626.5H299.67L304 619Z" fill="#FEB941"/>
<path d="M324 619L328.33 626.5H319.67L324 619Z" fill="#FEB941"/>
<path d="M344 619L348.33 626.5H339.67L344 619Z" fill="#FEB941"/>
<path d="M364 619L368.33 626.5H359.67L364 619Z" fill="#FEB941"/>
<path d="M384 619L388.33 626.5H379.67L384 619Z" fill="#FEB941"/>
<path d="M404 619L408.33 626.5H399.67L404 619Z" fill="#FEB941"/>
<path d="M424 619L428.33 626.5H419.67L424 619Z" fill="#FEB941"/>
<path d="M444 619L448.33 626.5H439.67L444 619Z" fill="#FEB941"/>
<path d="M464 619L468.33 626.5H459.67L464 619Z" fill="#FEB941"/>
<path d="M484 619L488.33 626.5H479.67L484 619Z" fill="#FEB941"/>
<path d="M504 619L508.33 626.5H499.67L504 619Z" fill="#FEB941"/>
<path d="M524 619L528.33 626.5H519.67L524 619Z" fill="#FEB941"/>
<path d="M544 619L548.33 626.5H539.67L544 619Z" fill="#FEB941"/>
<path d="M564 619L568.33 626.5H559.67L564 619Z" fill="#FEB941"/>
<path d="M584 619L588.33 626.5H579.67L584 619Z" fill="#FEB941"/>
<path d="M604 619L608.33 626.5H599.67L604 619Z" fill="#FEB941"/>
<path d="M624 619L628.33 626.5H619.67L624 619Z" fill="#FEB941"/>
<path d="M644 619L648.33 626.5H639.67L644 619Z" fill="#FEB941"/>
<path d="M664 619L668.33 626.5H659.67L664 619Z" fill="#FEB941"/>
<path d="M684 619L688.33 626.5H679.67L684 619Z" fill="#FEB941"/>
<path d="M704 619L708.33 626.5H699.67L704 619Z" fill="#FEB941"/>
<path d="M124 639L128.33 646.5H119.67L124 639Z" fill="#FEB941"/>
<path d="M144 639L148.33 646.5H139.67L144 639Z" fill="#FEB941"/>
<path d="M164 639L168.33 646.5H159.67L164 639Z" fill="#FEB941"/>
<path d="M184 639L188.33 646.5H179.67L184 639Z" fill="#FEB941"/>
<path d="M204 639L208.33 646.5H199.67L204 639Z" fill="#FEB941"/>
<path d="M224 639L228.33 646.5H219.67L224 639Z" fill="#FEB941"/>
<path d="M244 639L248.33 646.5H239.67L244 639Z" fill="#FEB941"/>
<path d="M264 639L268.33 646.5H259.67L264 639Z" fill="#FEB941"/>
<path d="M284 639L288.33 646.5H279.67L284 639Z" fill="#FEB941"/>
<path d="M304 639L308.33 646.5H299.67L304 639Z" fill="#FEB941"/>
<path d="M324 639L328.33 646.5H319.67L324 639Z" fill="#FEB941"/>
<path d="M344 639L348.33 646.5H339.67L344 639Z" fill="#FEB941"/>
<path d="M364 639L368.33 646.5H359.67L364 639Z" fill="#FEB941"/>
<path d="M384 639L388.33 646.5H379.67L384 639Z" fill="#FEB941"/>
<path d="M404 639L408.33 646.5H399.67L404 639Z" fill="#FEB941"/>
<path d="M424 639L428.33 646.5H419.67L424 639Z" fill="#FEB941"/>
<path d="M444 639L448.33 646.5H439.67L444 639Z" fill="#FEB941"/>
<path d="M464 639L468.33 646.5H459.67L464 639Z" fill="#FEB941"/>
<path d="M484 639L488.33 646.5H479.67L484 639Z" fill="#FEB941"/>
<path d="M504 639L508.33 646.5H499.67L504 639Z" fill="#FEB941"/>
<path d="M524 639L528.33 646.5H519.67L524 639Z" fill="#FEB941"/>
<path d="M544 639L548.33 646.5H539.67L544 639Z" fill="#FEB941"/>
<path d="M564 639L568.33 646.5H559.67L564 639Z" fill="#FEB941"/>
<path d="M584 639L588.33 646.5H579.67L584 639Z" fill="#FEB941"/>
<path d="M604 639L608.33 646.5H599.67L604 639Z" fill="#FEB941"/>
<path d="M624 639L628.33 646.5H619.67L624 639Z" fill="#FEB941"/>
<path d="M644 639L648.33 646.5H639.67L644 639Z" fill="#FEB941"/>
<path d="M664 639L668.33 646.5H659.67L664 639Z" fill="#FEB941"/>
<path d="M684 639L688.33 646.5H679.67L684 639Z" fill="#FEB941"/>
<path d="M704 639L708.33 646.5H699.67L704 639Z" fill="#FEB941"/>
<path d="M124 659L128.33 666.5H119.67L124 659Z" fill="#FEB941"/>
<path d="M144 659L148.33 666.5H139.67L144 659Z" fill="#FEB941"/>
<path d="M164 659L168.33 666.5H159.67L164 659Z" fill="#FEB941"/>
<path d="M184 659L188.33 666.5H179.67L184 659Z" fill="#FEB941"/>
<path d="M204 659L208.33 666.5H199.67L204 659Z" fill="#FEB941"/>
<path d="M224 659L228.33 666.5H219.67L224 659Z" fill="#FEB941"/>
<path d="M244 659L248.33 666.5H239.67L244 659Z" fill="#FEB941"/>
<path d="M264 659L268.33 666.5H259.67L264 659Z" fill="#FEB941"/>
<path d="M284 659L288.33 666.5H279.67L284 659Z" fill="#FEB941"/>
<path d="M304 659L308.33 666.5H299.67L304 659Z" fill="#FEB941"/>
<path d="M324 659L328.33 666.5H319.67L324 659Z" fill="#FEB941"/>
<path d="M344 659L348.33 666.5H339.67L344 659Z" fill="#FEB941"/>
<path d="M364 659L368.33 666.5H359.67L364 659Z" fill="#FEB941"/>
<path d="M384 659L388.33 666.5H379.67L384 659Z" fill="#FEB941"/>
<path d="M404 659L408.33 666.5H399.67L404 659Z" fill="#FEB941"/>
<path d="M424 659L428.33 666.5H419.67L424 659Z" fill="#FEB941"/>
<path d="M444 659L448.33 666.5H439.67L444 659Z" fill="#FEB941"/>
<path d="M464 659L468.33 666.5H459.67L464 659Z" fill="#FEB941"/>
<path d="M484 659L488.33 666.5H479.67L484 659Z" fill="#FEB941"/>
<path d="M504 659L508.33 666.5H499.67L504 659Z" fill="#FEB941"/>
<path d="M524 659L528.33 666.5H519.67L524 659Z" fill="#FEB941"/>
<path d="M544 659L548.33 666.5H539.67L544 659Z" fill="#FEB941"/>
<path d="M564 659L568.33 666.5H559.67L564 659Z" fill="#FEB941"/>
<path d="M584 659L588.33 666.5H579.67L584 659Z" fill="#FEB941"/>
<path d="M604 659L608.33 666.5H599.67L604 659Z" fill="#FEB941"/>
<path d="M624 659L628.33 666.5H619.67L624 659Z" fill="#FEB941"/>
<path d="M644 659L648.33 666.5H639.67L644 659Z" fill="#FEB941"/>
<path d="M664 659L668.33 666.5H659.67L664 659Z" fill="#FEB941"/>
<path d="M684 659L688.33 666.5H679.67L684 659Z" fill="#FEB941"/>
<path d="M704 659L708.33 666.5H699.67L704 659Z" fill="#FEB941"/>
<path d="M124 679L128.33 686.5H119.67L124 679Z" fill="#FEB941"/>
<path d="M144 679L148.33 686.5H139.67L144 679Z" fill="#FEB941"/>
<path d="M164 679L168.33 686.5H159.67L164 679Z" fill="#FEB941"/>
<path d="M184 679L188.33 686.5H179.67L184 679Z" fill="#FEB941"/>
<path d="M204 679L208.33 686.5H199.67L204 679Z" fill="#FEB941"/>
<path d="M224 679L228.33 686.5H219.67L224 679Z" fill="#FEB941"/>
<path d="M244 679L248.33 686.5H239.67L244 679Z" fill="#FEB941"/>
<path d="M264 679L268.33 686.5H259.67L264 679Z" fill="#FEB941"/>
<path d="M284 679L288.33 686.5H279.67L284 679Z" fill="#FEB941"/>
<path d="M304 679L308.33 686.5H299.67L304 679Z" fill="#FEB941"/>
<path d="M324 679L328.33 686.5H319.67L324 679Z" fill="#FEB941"/>
<path d="M344 679L348.33 686.5H339.67L344 679Z" fill="#FEB941"/>
<path d="M364 679L368.33 686.5H359.67L364 679Z" fill="#FEB941"/>
<path d="M384 679L388.33 686.5H379.67L384 679Z" fill="#FEB941"/>
<path d="M404 679L408.33 686.5H399.67L404 679Z" fill="#FEB941"/>
<path d="M424 679L428.33 686.5H419.67L424 679Z" fill="#FEB941"/>
<path d="M444 679L448.33 686.5H439.67L444 679Z" fill="#FEB941"/>
<path d="M464 679L468.33 686.5H459.67L464 679Z" fill="#FEB941"/>
<path d="M484 679L488.33 686.5H479.67L484 679Z" fill="#FEB941"/>
<path d="M504 679L508.33 686.5H499.67L504 679Z" fill="#FEB941"/>
<path d="M524 679L528.33 686.5H519.67L524 679Z" fill="#FEB941"/>
<path d="M544 679L548.33 686.5H539.67L544 679Z" fill="#FEB941"/>
<path d="M564 679L568.33 686.5H559.67L564 679Z" fill="#FEB941"/>
<path d="M584 679L588.33 686.5H579.67L584 679Z" fill="#FEB941"/>
<path d="M604 679L608.33 686.5H599.67L604 679Z" fill="#FEB941"/>
<path d="M624 679L628.33 686.5H619.67L624 679Z" fill="#FEB941"/>
<path d="M644 679L648.33 686.5H639.67L644 679Z" fill="#FEB941"/>
<path d="M664 679L668.33 686.5H659.67L664 679Z" fill="#FEB941"/>
<path d="M684 679L688.33 686.5H679.67L684 679Z" fill="#FEB941"/>
<path d="M704 679L708.33 686.5H699.67L704 679Z" fill="#FEB941"/>
<path d="M124 699L128.33 706.5H119.67L124 699Z" fill="#FEB941"/>
<path d="M144 699L148.33 706.5H139.67L144 699Z" fill="#FEB941"/>
<path d="M164 699L168.33 706.5H159.67L164 699Z" fill="#FEB941"/>
<path d="M184 699L188.33 706.5H179.67L184 699Z" fill="#FEB941"/>
<path d="M204 699L208.33 706.5H199.67L204 699Z" fill="#FEB941"/>
<path d="M224 699L228.33 706.5H219.67L224 699Z" fill="#FEB941"/>
<path d="M244 699L248.33 706.5H239.67L244 699Z" fill="#FEB941"/>
<path d="M264 699L268.33 706.5H259.67L264 699Z" fill="#FEB941"/>
<path d="M284 699L288.33 706.5H279.67L284 699Z" fill="#FEB941"/>
<path d="M304 699L308.33 706.5H299.67L304 699Z" fill="#FEB941"/>
<path d="M324 699L328.33 706.5H319.67L324 699Z" fill="#FEB941"/>
<path d="M344 699L348.33 706.5H339.67L344 699Z" fill="#FEB941"/>
<path d="M364 699L368.33 706.5H359.67L364 699Z" fill="#FEB941"/>
<path d="M384 699L388.33 706.5H379.67L384 699Z" fill="#FEB941"/>
<path d="M404 699L408.33 706.5H399.67L404 699Z" fill="#FEB941"/>
<path d="M424 699L428.33 706.5H419.67L424 699Z" fill="#FEB941"/>
<path d="M444 699L448.33 706.5H439.67L444 699Z" fill="#FEB941"/>
<path d="M464 699L468.33 706.5H459.67L464 699Z" fill="#FEB941"/>
<path d="M484 699L488.33 706.5H479.67L484 699Z" fill="#FEB941"/>
<path d="M504 699L508.33 706.5H499.67L504 699Z" fill="#FEB941"/>
<path d="M524 699L528.33 706.5H519.67L524 699Z" fill="#FEB941"/>
<path d="M544 699L548.33 706.5H539.67L544 699Z" fill="#FEB941"/>
<path d="M564 699L568.33 706.5H559.67L564 699Z" fill="#FEB941"/>
<path d="M584 699L588.33 706.5H579.67L584 699Z" fill="#FEB941"/>
<path d="M604 699L608.33 706.5H599.67L604 699Z" fill="#FEB941"/>
<path d="M624 699L628.33 706.5H619.67L624 699Z" fill="#FEB941"/>
<path d="M644 699L648.33 706.5H639.67L644 699Z" fill="#FEB941"/>
<path d="M664 699L668.33 706.5H659.67L664 699Z" fill="#FEB941"/>
<path d="M684 699L688.33 706.5H679.67L684 699Z" fill="#FEB941"/>
<path d="M704 699L708.33 706.5H699.67L704 699Z" fill="#FEB941"/>
<path d="M124 719L128.33 726.5H119.67L124 719Z" fill="#FEB941"/>
<path d="M144 719L148.33 726.5H139.67L144 719Z" fill="#FEB941"/>
<path d="M164 719L168.33 726.5H159.67L164 719Z" fill="#FEB941"/>
<path d="M184 719L188.33 726.5H179.67L184 719Z" fill="#FEB941"/>
<path d="M204 719L208.33 726.5H199.67L204 719Z" fill="#FEB941"/>
<path d="M224 719L228.33 726.5H219.67L224 719Z" fill="#FEB941"/>
<path d="M244 719L248.33 726.5H239.67L244 719Z" fill="#FEB941"/>
<path d="M264 719L268.33 726.5H259.67L264 719Z" fill="#FEB941"/>
<path d="M284 719L288.33 726.5H279.67L284 719Z" fill="#FEB941"/>
<path d="M304 719L308.33 726.5H299.67L304 719Z" fill="#FEB941"/>
<path d="M324 719L328.33 726.5H319.67L324 719Z" fill="#FEB941"/>
<path d="M344 719L348.33 726.5H339.67L344 719Z" fill="#FEB941"/>
<path d="M364 719L368.33 726.5H359.67L364 719Z" fill="#FEB941"/>
<path d="M384 719L388.33 726.5H379.67L384 719Z" fill="#FEB941"/>
<path d="M404 719L408.33 726.5H399.67L404 719Z" fill="#FEB941"/>
<path d="M424 719L428.33 726.5H419.67L424 719Z" fill="#FEB941"/>
<path d="M444 719L448.33 726.5H439.67L444 719Z" fill="#FEB941"/>
<path d="M464 719L468.33 726.5H459.67L464 719Z" fill="#FEB941"/>
<path d="M484 719L488.33 726.5H479.67L484 719Z" fill="#FEB941"/>
<path d="M504 719L508.33 726.5H499.67L504 719Z" fill="#FEB941"/>
<path d="M524 719L528.33 726.5H519.67L524 719Z" fill="#FEB941"/>
<path d="M544 719L548.33 726.5H539.67L544 719Z" fill="#FEB941"/>
<path d="M564 719L568.33 726.5H559.67L564 719Z" fill="#FEB941"/>
<path d="M584 719L588.33 726.5H579.67L584 719Z" fill="#FEB941"/>
<path d="M604 719L608.33 726.5H599.67L604 719Z" fill="#FEB941"/>
<path d="M624 719L628.33 726.5H619.67L624 719Z" fill="#FEB941"/>
<path d="M644 719L648.33 726.5H639.67L644 719Z" fill="#FEB941"/>
<path d="M664 719L668.33 726.5H659.67L664 719Z" fill="#FEB941"/>
<path d="M684 719L688.33 726.5H679.67L684 719Z" fill="#FEB941"/>
<path d="M704 719L708.33 726.5H699.67L704 719Z" fill="#FEB941"/>
<path d="M124 739L128.33 746.5H119.67L124 739Z" fill="#FEB941"/>
<path d="M144 739L148.33 746.5H139.67L144 739Z" fill="#FEB941"/>
<path d="M164 739L168.33 746.5H159.67L164 739Z" fill="#FEB941"/>
<path d="M184 739L188.33 746.5H179.67L184 739Z" fill="#FEB941"/>
<path d="M204 739L208.33 746.5H199.67L204 739Z" fill="#FEB941"/>
<path d="M224 739L228.33 746.5H219.67L224 739Z" fill="#FEB941"/>
<path d="M244 739L248.33 746.5H239.67L244 739Z" fill="#FEB941"/>
<path d="M264 739L268.33 746.5H259.67L264 739Z" fill="#FEB941"/>
<path d="M284 739L288.33 746.5H279.67L284 739Z" fill="#FEB941"/>
<path d="M304 739L308.33 746.5H299.67L304 739Z" fill="#FEB941"/>
<path d="M324 739L328.33 746.5H319.67L324 739Z" fill="#FEB941"/>
<path d="M344 739L348.33 746.5H339.67L344 739Z" fill="#FEB941"/>
<path d="M364 739L368.33 746.5H359.67L364 739Z" fill="#FEB941"/>
<path d="M384 739L388.33 746.5H379.67L384 739Z" fill="#FEB941"/>
<path d="M404 739L408.33 746.5H399.67L404 739Z" fill="#FEB941"/>
<path d="M424 739L428.33 746.5H419.67L424 739Z" fill="#FEB941"/>
<path d="M444 739L448.33 746.5H439.67L444 739Z" fill="#FEB941"/>
<path d="M464 739L468.33 746.5H459.67L464 739Z" fill="#FEB941"/>
<path d="M484 739L488.33 746.5H479.67L484 739Z" fill="#FEB941"/>
<path d="M504 739L508.33 746.5H499.67L504 739Z" fill="#FEB941"/>
<path d="M524 739L528.33 746.5H519.67L524 739Z" fill="#FEB941"/>
<path d="M544 739L548.33 746.5H539.67L544 739Z" fill="#FEB941"/>
<path d="M564 739L568.33 746.5H559.67L564 739Z" fill="#FEB941"/>
<path d="M584 739L588.33 746.5H579.67L584 739Z" fill="#FEB941"/>
<path d="M604 739L608.33 746.5H599.67L604 739Z" fill="#FEB941"/>
<path d="M624 739L628.33 746.5H619.67L624 739Z" fill="#FEB941"/>
<path d="M644 739L648.33 746.5H639.67L644 739Z" fill="#FEB941"/>
<path d="M664 739L668.33 746.5H659.67L664 739Z" fill="#FEB941"/>
<path d="M684 739L688.33 746.5H679.67L684 739Z" fill="#FEB941"/>
<path d="M704 739L708.33 746.5H699.67L704 739Z" fill="#FEB941"/>
<path fill-rule="evenodd" clip-rule="evenodd" d="M1438.6 857.28C1437.93 859.013 1437.07 860.647 1436 862.18C1434.87 863.713 1433.57 865.213 1432.1 866.68C1430.63 868.147 1428.97 869.613 1427.1 871.08C1425.23 872.48 1423.23 873.913 1421.1 875.38C1418.9 876.78 1416.57 878.213 1414.1 879.68C1411.63 881.147 1409.03 882.647 1406.3 884.18C1403.63 885.713 1400.83 887.313 1397.9 888.98C1394.97 890.647 1391.93 892.413 1388.8 894.28C1385.67 896.08 1382.47 897.98 1379.2 899.98C1375.93 902.047 1372.63 904.213 1369.3 906.48C1365.9 908.68 1362.47 910.98 1359 913.38C1355.53 915.78 1352.03 918.213 1348.5 920.68C1344.97 923.213 1341.4 925.68 1337.8 928.08C1334.2 930.547 1330.6 932.947 1327 935.28C1323.33 937.613 1319.67 939.847 1316 941.98C1312.33 944.113 1308.67 946.08 1305 947.88C1301.33 949.747 1297.67 951.38 1294 952.78C1290.33 954.247 1286.67 955.48 1283 956.48C1279.33 957.48 1275.7 958.18 1272.1 958.58C1268.5 958.98 1264.9 959.08 1261.3 958.88C1257.77 958.68 1254.27 958.18 1250.8 957.38C1247.33 956.58 1243.93 955.513 1240.6 954.18C1237.2 952.847 1233.9 951.28 1230.7 949.48C1227.5 947.613 1224.37 945.58 1221.3 943.38C1218.3 941.18 1215.37 938.78 1212.5 936.18C1209.7 933.58 1207 930.847 1204.4 927.98C1201.73 925.113 1199.23 922.147 1196.9 919.08C1194.57 915.947 1192.37 912.747 1190.3 909.48C1188.3 906.147 1186.43 902.78 1184.7 899.38C1182.97 895.98 1181.4 892.547 1180 889.08C1178.6 885.613 1177.37 882.147 1176.3 878.68C1175.23 875.147 1174.37 871.613 1173.7 868.08C1172.97 864.547 1172.37 861.047 1171.9 857.58C1171.5 854.047 1171.23 850.547 1171.1 847.08C1170.97 843.547 1170.97 840.08 1171.1 836.68C1171.23 833.213 1171.53 829.813 1172 826.48C1172.4 823.08 1172.93 819.747 1173.6 816.48C1174.27 813.213 1175.03 809.98 1175.9 806.78C1176.77 803.647 1177.77 800.547 1178.9 797.48C1180.03 794.48 1181.27 791.547 1182.6 788.68C1183.93 785.813 1185.33 783.013 1186.8 780.28C1188.33 777.547 1189.93 774.913 1191.6 772.38C1193.33 769.847 1195.1 767.413 1196.9 765.08C1198.77 762.747 1200.7 760.48 1202.7 758.28C1204.63 756.147 1206.67 754.08 1208.8 752.08C1210.93 750.147 1213.1 748.313 1215.3 746.58C1217.57 744.78 1219.83 743.113 1222.1 741.58C1224.43 740.113 1226.8 738.713 1229.2 737.38C1231.6 736.113 1234.03 734.947 1236.5 733.88C1238.97 732.813 1241.47 731.847 1244 730.98C1246.53 730.18 1249.07 729.447 1251.6 728.78C1254.13 728.18 1256.7 727.613 1259.3 727.08C1261.9 726.613 1264.5 726.18 1267.1 725.78C1269.7 725.313 1272.33 724.88 1275 724.48C1277.6 724.08 1280.23 723.647 1282.9 723.18C1285.5 722.78 1288.13 722.313 1290.8 721.78C1293.47 721.18 1296.13 720.547 1298.8 719.88C1301.4 719.147 1304.03 718.347 1306.7 717.48C1309.3 716.547 1311.93 715.48 1314.6 714.28C1317.2 713.147 1319.8 711.847 1322.4 710.38C1325 708.847 1327.6 707.213 1330.2 705.48C1332.8 703.747 1335.4 701.947 1338 700.08C1340.6 698.147 1343.2 696.18 1345.8 694.18C1348.47 692.18 1351.1 690.147 1353.7 688.08C1356.37 686.013 1359.07 684.013 1361.8 682.08C1364.47 680.08 1367.2 678.147 1370 676.28C1372.8 674.413 1375.6 672.647 1378.4 670.98C1381.27 669.313 1384.17 667.813 1387.1 666.48C1390.1 665.08 1393.13 663.88 1396.2 662.88C1399.2 661.813 1402.3 660.98 1405.5 660.38C1408.63 659.78 1411.83 659.38 1415.1 659.18C1418.3 658.98 1421.47 658.947 1424.6 659.08C1427.8 659.28 1430.9 659.647 1433.9 660.18C1436.97 660.713 1439.9 661.447 1442.7 662.38C1445.57 663.247 1448.27 664.28 1450.8 665.48C1453.33 666.747 1455.67 668.147 1457.8 669.68C1460 671.147 1461.93 672.78 1463.6 674.58C1465.33 676.447 1466.77 678.413 1467.9 680.48C1469.03 682.547 1469.87 684.713 1470.4 686.98C1470.93 689.313 1471.1 691.747 1470.9 694.28C1470.77 696.813 1470.33 699.413 1469.6 702.08C1468.87 704.813 1467.9 707.613 1466.7 710.48C1465.5 713.347 1464.1 716.28 1462.5 719.28C1460.97 722.28 1459.33 725.347 1457.6 728.48C1455.8 731.547 1453.97 734.68 1452.1 737.88C1450.3 741.013 1448.47 744.18 1446.6 747.38C1444.8 750.58 1443.07 753.78 1441.4 756.98C1439.73 760.18 1438.2 763.347 1436.8 766.48C1435.47 769.68 1434.3 772.813 1433.3 775.88C1432.3 779.013 1431.57 782.08 1431.1 785.08C1430.63 788.08 1430.37 791.047 1430.3 793.98C1430.23 796.913 1430.37 799.78 1430.7 802.58C1430.97 805.38 1431.37 808.113 1431.9 810.78C1432.37 813.513 1432.93 816.147 1433.6 818.68C1434.27 821.28 1434.93 823.78 1435.6 826.18C1436.27 828.647 1436.9 831.013 1437.5 833.28C1438.1 835.613 1438.6 837.847 1439 839.98C1439.47 842.18 1439.77 844.28 1439.9 846.28C1440.1 848.28 1440.1 850.18 1439.9 851.98C1439.7 853.847 1439.27 855.613 1438.6 857.28Z" fill="#FEB941"/>
</g>
<defs>
<clipPath id="clip0_1_2">
<rect width="1440" height="1024" fill="white"/>
</clipPath>
</defs>
</svg>
